<svg width="28" height="28" fill="none" xmlns="http://www.w3.org/2000/svg"><path d="M27.822 13.455c-.25-.342-6.21-8.378-13.822-8.378-7.612 0-13.572 8.036-13.822 8.378a.924.924 0 0 0 0 1.09c.25.342 6.21 8.378 13.822 8.378 7.612 0 13.572-8.036 13.822-8.378a.923.923 0 0 0 0-1.09zM14 21.077c-5.607 0-10.464-5.334-11.901-7.078 1.436-1.745 6.282-7.076 11.9-7.076 5.608 0 10.464 5.333 11.902 7.078-1.436 1.745-6.282 7.076-11.901 7.076z" fill="#C4C4C4"/><path d="M14 8.461A5.545 5.545 0 0 0 8.462 14 5.545 5.545 0 0 0 14 19.538 5.545 5.545 0 0 0 19.538 14 5.545 5.545 0 0 0 14 8.46zm0 9.231A3.696 3.696 0 0 1 10.308 14 3.696 3.696 0 0 1 14 10.308 3.696 3.696 0 0 1 17.692 14 3.696 3.696 0 0 1 14 17.692z" fill="#C4C4C4"/></svg>