<svg width="92" height="92" fill="none" xmlns="http://www.w3.org/2000/svg"><g filter="url(#filter0_dd)"><g clip-path="url(#clip0)" fill="#8A4BC3"><path d="M71.2 49V29.4c.02-9.21-6.861-16.973-16.006-18.06l4.666-9.314A1.4 1.4 0 0 0 58.6 0H33.4a1.401 1.401 0 0 0-1.253 2.026l4.66 9.314c-9.13 1.116-15.995 8.862-16.007 18.06v25.2h2.8V29.4c.01-8.501 6.899-15.39 15.4-15.4h14a15.376 15.376 0 0 1 15.4 15.4V49h2.8zM52.135 11.2h-12.27l-4.2-8.4h20.67l-4.2 8.4z"/><path d="M34.1 20.915a9.699 9.699 0 0 1 2.449-1.005l-.7-2.71a12.633 12.633 0 0 0-3.152 1.291l1.403 2.424zM26.4 35h2.8v-5.6a9.725 9.725 0 0 1 2.977-7.028l-1.95-2.008A12.5 12.5 0 0 0 26.4 29.4V35zM7.993 68.807L31.76 81.77A18.195 18.195 0 0 0 40.484 84H86.6a1.4 1.4 0 0 0 1.4-1.4V57.4a1.4 1.4 0 0 0-1.4-1.4H75.886l-.16-.124a22.163 22.163 0 0 0-5.398-3.105 22.707 22.707 0 0 0-20.71 1.829H39a7.001 7.001 0 0 0-6.68 9.1l-17.306-8.672a7.49 7.49 0 0 0-7.931.76A7.698 7.698 0 0 0 4 61.935v.154a7.63 7.63 0 0 0 3.993 6.717zM76.8 58.8h8.4v22.4h-8.4V58.8zm-70 3.136a4.946 4.946 0 0 1 2.029-3.962 4.684 4.684 0 0 1 4.932-.442l21.814 10.92c.193.097.408.148.625.148h21v-2.8H39a4.2 4.2 0 0 1 0-8.4h11.032c.274 0 .542-.08.772-.231a19.905 19.905 0 0 1 18.48-1.8A19.44 19.44 0 0 1 74 58.078v23.12H40.484c-2.58 0-5.117-.65-7.38-1.886L9.328 66.347A4.833 4.833 0 0 1 6.8 62.09v-.154z"/><path d="M79.6 74.2h2.8V77h-2.8v-2.8zM47.4 49v-2.8h1.4a5.6 5.6 0 0 0 0-11.2h-5.6a2.8 2.8 0 0 1 0-5.6H53v-2.8h-5.6v-2.8h-2.8v2.8h-1.4a5.6 5.6 0 0 0 0 11.2h5.6a2.8 2.8 0 0 1 0 5.6H39v2.8h5.6V49h2.8z"/></g></g><defs><filter id="filter0_dd" x="0" y="0" width="92" height="92" filterUnits="userSpaceOnUse" color-interpolation-filters="sRGB"><feFlood flood-opacity="0" result="BackgroundImageFix"/><feColorMatrix in="SourceAlpha" values="0 0 0 0 0 0 0 0 0 0 0 0 0 0 0 0 0 0 127 0"/><feOffset dy="4"/><feGaussianBlur stdDeviation="2"/><feColorMatrix values="0 0 0 0 0 0 0 0 0 0 0 0 0 0 0 0 0 0 0.25 0"/><feBlend in2="BackgroundImageFix" result="effect1_dropShadow"/><feColorMatrix in="SourceAlpha" values="0 0 0 0 0 0 0 0 0 0 0 0 0 0 0 0 0 0 127 0"/><feOffset dy="4"/><feGaussianBlur stdDeviation="2"/><feColorMatrix values="0 0 0 0 0 0 0 0 0 0 0 0 0 0 0 0 0 0 0.25 0"/><feBlend in2="effect1_dropShadow" result="effect2_dropShadow"/><feBlend in="SourceGraphic" in2="effect2_dropShadow" result="shape"/></filter><clipPath id="clip0"><path fill="#fff" d="M4 0h84v84H4z"/></clipPath></defs></svg>