<svg width="94" height="94" fill="none" xmlns="http://www.w3.org/2000/svg"><g clip-path="url(#clip0)" fill="#8A4BC3"><path d="M43.206 23.83c-.828 0-1.498.67-1.498 1.498a.95.95 0 1 1-1.903 0 1.498 1.498 0 0 0-2.996 0 3.948 3.948 0 1 0 7.895 0c0-.827-.671-1.498-1.498-1.498zm9.798 5.445a3.952 3.952 0 0 0 3.948-3.947 1.498 1.498 0 0 0-2.997 0 .951.951 0 0 1-1.903 0 1.498 1.498 0 0 0-2.996 0 3.951 3.951 0 0 0 3.948 3.947z"/><path d="M16.353 87.858l30.561 5.927a1.427 1.427 0 0 0 .56 0l30.548-5.927a1.474 1.474 0 0 0 1.185-1.47V47.17a1.457 1.457 0 0 0-1.743-1.471l-5.79 1.104a11.325 11.325 0 0 0-9.747-5.61h-5.565v-2.842c.561-.472 1.192-.993 1.745-1.559a16.17 16.17 0 0 0 4.621-11.334V20.27a8.006 8.006 0 0 0 3.654.19 8.009 8.009 0 1 0-2.92-15.748 8.352 8.352 0 0 0-3.7 1.734 15.808 15.808 0 0 0-28.68 9.215v9.798a16.16 16.16 0 0 0 4.616 11.334c.721.742 1.377 1.401 2.313 1.979v2.423h-5.565a11.347 11.347 0 0 0-9.752 5.61l-5.797-1.115a1.443 1.443 0 0 0-1.211.32c-.34.29-.53.715-.52 1.16v39.217a1.475 1.475 0 0 0 1.187 1.471zm30.833 2.93l-2.06-.409V54.215l1.8.354c.175.036.357.036.533 0l1.787-.354v36.164l-2.06.41zM76.21 71.904h-2.612a2.217 2.217 0 0 1-2.256-2.197v-4.432a2.196 2.196 0 0 1 2.256-2.172h2.612v8.801zm0-11.797h-2.612a5.192 5.192 0 0 0-5.252 5.168v4.432a5.212 5.212 0 0 0 5.252 5.193h2.612v10.252l-23.968 4.647V53.634l18.535-3.589c.029.003.07.007.099.007.211 0 .42-.044.614-.13.013-.005 0-.012.013-.018l4.707-.918v11.121zm-7.723-12.684l-19.803 3.859V48.45l6.605-4.26h6.638a8.335 8.335 0 0 1 6.56 3.232zM64.04 7.652a4.943 4.943 0 0 1 3.814.761 5.04 5.04 0 0 1-5.125 8.653V15.66a15.756 15.756 0 0 0-1.43-6.568 5.405 5.405 0 0 1 2.741-1.441zm-4.308 7.866a11.102 11.102 0 0 1-3.13-4.864 1.5 1.5 0 0 0-2.751-.387c-2.52 4.352-6.73 6.803-12.567 7.287-2.408.182-4.83.05-7.204-.39v-1.503a12.81 12.81 0 0 1 .31-2.908 20.174 20.174 0 0 0 6.223.09c3.727-.533 8.865-2.417 12.79-8.253a12.853 12.853 0 0 1 6.328 10.928zM46.88 2.808c1.262 0 2.518.186 3.727.552-2.615 3.68-6.076 5.864-10.31 6.5a17.369 17.369 0 0 1-4.892.02A12.866 12.866 0 0 1 46.88 2.809zM34.079 25.46v-5.25a29.892 29.892 0 0 0 7.345.34c5.73-.456 10.306-2.67 13.412-6.45a13.946 13.946 0 0 0 4.896 5.128v6.232a13.19 13.19 0 0 1-3.778 9.244 12.6 12.6 0 0 1-9.074 3.89c-3.41 0-6.606-1.382-9.049-3.89a13.164 13.164 0 0 1-3.752-9.244zm12.82 16.13a15.518 15.518 0 0 0 6.467-1.424v1.747l-6.163 3.942-6.196-3.945v-1.492A15.424 15.424 0 0 0 46.9 41.59zm-14.453 2.602h6.6l6.642 4.262v2.829l-19.802-3.859a8.344 8.344 0 0 1 6.56-3.232zm9.684 9.443V89.8l-23.968-4.647V74.9h2.684a5.152 5.152 0 0 0 5.18-5.193v-4.432a5.133 5.133 0 0 0-5.18-5.168h-2.684v-11.12l23.968 4.647zm-23.968 18.27v-8.8h2.684a2.133 2.133 0 0 1 2.185 2.171v4.432a2.154 2.154 0 0 1-2.185 2.197h-2.684z"/></g><defs><clipPath id="clip0"><path fill="#fff" d="M0 0h94v94H0z"/></clipPath></defs></svg>