<svg width="90" height="90" fill="none" xmlns="http://www.w3.org/2000/svg"><path d="M24.158 40.737c4.962 0 9-4.038 9-9 0-4.963-4.038-9-9-9-4.963 0-9 4.037-9 9 0 4.962 4.037 9 9 9zm0-15.158a6.165 6.165 0 0 1 6.158 6.158 6.165 6.165 0 0 1-6.158 6.158A6.165 6.165 0 0 1 18 31.737a6.165 6.165 0 0 1 6.158-6.158zm24.632 0h39.789a1.421 1.421 0 1 0 0-2.842h-4.511a3.32 3.32 0 0 0 1.19-4.516L75.786 1.81A3.293 3.293 0 0 0 73.772.268a3.295 3.295 0 0 0-2.516.331l-2.382 1.375A3.321 3.321 0 0 0 65.842 0h-3.79c-.703 0-1.357.22-1.894.596A3.297 3.297 0 0 0 58.263 0h-3.79a3.32 3.32 0 0 0-3.315 3.316v18.947c0 .16.011.319.034.474h-2.403a1.421 1.421 0 0 0 0 2.842zM69.394 4.954l3.282-1.895a.467.467 0 0 1 .36-.047c.07.019.201.073.287.22l9.474 16.41a.474.474 0 0 1-.174.647l-3.282 1.895a.474.474 0 0 1-.647-.174L69.222 5.601a.474.474 0 0 1 .173-.647zm-.237 17.31v-11.09l6.675 11.563h-6.709c.022-.155.034-.313.034-.474zM54 3.315c0-.261.212-.474.474-.474h3.79c.26 0 .473.213.473.474v3.79a1.421 1.421 0 0 0 2.842 0v-3.79c0-.261.212-.474.474-.474h3.79c.26 0 .473.213.473.474v18.947a.474.474 0 0 1-.474.474h-3.79a.474.474 0 0 1-.473-.474v-9.474a1.421 1.421 0 1 0-2.842 0v9.474a.474.474 0 0 1-.474.474h-3.79a.474.474 0 0 1-.473-.474V3.316zm32.684 63.001H63.947a3.32 3.32 0 0 0-3.316 3.316v8.052h-6.157a1.421 1.421 0 1 0 0 2.842h6.158v6.158A3.32 3.32 0 0 0 63.947 90h22.737A3.32 3.32 0 0 0 90 86.684V69.632a3.32 3.32 0 0 0-3.316-3.316zm.474 20.368a.474.474 0 0 1-.474.474H63.947a.474.474 0 0 1-.474-.474v-2.402c.155.023.313.034.474.034h22.737c.16 0 .319-.012.474-.034v2.402zm0-5.684a.474.474 0 0 1-.474.474H63.947a.474.474 0 0 1-.474-.474v-2.402c.155.022.313.034.474.034h22.737c.16 0 .319-.012.474-.034V81zm0-5.684a.474.474 0 0 1-.474.474H63.947a.474.474 0 0 1-.474-.474v-5.684c0-.261.213-.474.474-.474h6.158v2.368a1.421 1.421 0 1 0 2.842 0v-2.368h2.842v2.368a1.421 1.421 0 1 0 2.842 0v-2.368h2.842v2.368a1.421 1.421 0 0 0 2.842 0v-2.368h2.369c.26 0 .474.213.474.474v5.684zM45 54.947h-2.447c-.71-6.385-6.139-11.368-12.711-11.368H18.474c-7.053 0-12.79 5.737-12.79 12.79V77.21c0 .16.007.318.022.474H1.42a1.421 1.421 0 0 0 0 2.842h5.457a5.202 5.202 0 0 0 4.017 1.895h11.842v2.368a5.216 5.216 0 0 0 5.21 5.21H45a5.216 5.216 0 0 0 5.21-5.21V60.158a5.216 5.216 0 0 0-5.21-5.21zM24.158 79.58H10.895a2.371 2.371 0 0 1-2.369-2.368V56.368c0-5.485 4.463-9.947 9.948-9.947h11.368c5.003 0 9.154 3.712 9.846 8.526h-11.74a5.216 5.216 0 0 0-5.211 5.211V72h-6.632V60.158a1.421 1.421 0 0 0-2.842 0v13.263c0 .785.637 1.421 1.421 1.421h9.486a2.371 2.371 0 0 1 2.356 2.369 2.371 2.371 0 0 1-2.368 2.368zm23.21 5.21A2.371 2.371 0 0 1 45 87.159H27.948a2.371 2.371 0 0 1-2.369-2.368v-2.566a5.22 5.22 0 0 0 3.79-5.013 5.22 5.22 0 0 0-3.79-5.014v-12.04a2.371 2.371 0 0 1 2.369-2.369H45a2.371 2.371 0 0 1 2.368 2.369V84.79zm41.211-31.737h-2.402a3.37 3.37 0 0 0 .033-.474V33.632a3.32 3.32 0 0 0-3.315-3.316h-3.79c-.704 0-1.357.22-1.895.596a3.298 3.298 0 0 0-1.894-.596h-3.79a3.32 3.32 0 0 0-3.316 3.316v18.947c0 .161.012.319.034.474h-9.98a1.421 1.421 0 1 0 0 2.842h30.315a1.421 1.421 0 1 0 0-2.842zm-5.21-.474a.474.474 0 0 1-.474.474h-3.79a.474.474 0 0 1-.474-.474v-9.474a1.421 1.421 0 0 0-2.842 0v9.474a.474.474 0 0 1-.473.474h-3.79a.474.474 0 0 1-.474-.474V33.632c0-.261.213-.474.474-.474h3.79c.26 0 .473.212.473.474v3.79a1.421 1.421 0 0 0 2.842 0v-3.79c0-.261.213-.474.474-.474h3.79c.26 0 .473.212.473.474v18.947z" fill="#8A4BC3"/><path d="M43.105 79.579H31.737a1.421 1.421 0 0 0 0 2.842h11.368a1.421 1.421 0 1 0 0-2.842zm0-17.053H31.737a1.421 1.421 0 0 0 0 2.842h11.368a1.421 1.421 0 0 0 0-2.842zm0 11.369h-7.579a1.421 1.421 0 0 0 0 2.842h7.58a1.421 1.421 0 1 0 0-2.842zm0-5.685H31.737a1.421 1.421 0 0 0 0 2.843h11.368a1.421 1.421 0 1 0 0-2.843z" fill="#8A4BC3"/></svg>