<svg width="1920" height="1865" fill="none" xmlns="http://www.w3.org/2000/svg"><path d="M1222 1095.1c182.9 23.5 376.1 61.5 376.1 61.5 179.6 35.3 224 52.8 321 55.9 69.3 2.3 222.6 7.3 374.2-66 188.8-91.4 381.2-307.4 374.2-566.8-2.8-105-40.8-313.9-170.6-359.5-152-53.4-235.1 180.8-550.3 251.3-169.8 38-430.2 35.7-629.2-44.9-40.9-16.6-139.3-60.8-280.7-76.1-21.3-2.3-102.1-11.1-176.1-1.8-240.2 30-398.8 248.4-432.9 295.3-144.4 198.7-256.7 543.1-139.4 641 142.4 118.7 456.2-251.2 933.7-189.9z" fill="#DCC9ED"/><g filter="url(#filter0_d)"><path d="M222.03 724.271c18.123-84.426 68.409-167.62 157.53-223.576 201.244-126.432 516.702-77.205 759.27-157.035 96.89-31.916 178.54-83.359 260.09-132.997 81.56-49.638 166.5-98.947 266.67-125.12 100.17-26.172 219.47-25.762 305.5 19.773 61.44 32.408 98.88 83.359 127.76 134.309 102.16 179.927 121.98 383.893 55.56 572.435-36.65 103.87-103.56 207.41-223.35 270.34 111.98 162.27-272.14 185-424.89 190.01-308.79 10.01-533.37-9.1-838.294-55.02-122.143-18.39-310.512-96.33-382.406-160.49-74.483-66.543-80.766-252.142-63.44-332.629z" fill="#C79ED6" fill-opacity=".6"/></g><g clip-path="url(#clip0)"><path d="M2353.61 1235.85c-280.4-228.81-560.55-292.746-674.3-185.27-41.55 39.27-87.62 126.62-90.18 215.89-1.99 69.36 22.83 121.14 58.45 177.23 49.71 78.36 142.08 199.25 308.27 315.24 132.61-174.39 265.15-348.69 397.76-523.09z" fill="#B3EDFA" fill-opacity=".6"/></g><defs><filter id="filter0_d" x="208" y="62" width="1999" height="1227" filterUnits="userSpaceOnUse" color-interpolation-filters="sRGB"><feFlood flood-opacity="0" result="BackgroundImageFix"/><feColorMatrix in="SourceAlpha" values="0 0 0 0 0 0 0 0 0 0 0 0 0 0 0 0 0 0 127 0"/><feOffset dx="4" dy="4"/><feGaussianBlur stdDeviation="5"/><feColorMatrix values="0 0 0 0 0 0 0 0 0 0 0 0 0 0 0 0 0 0 0.1 0"/><feBlend in2="BackgroundImageFix" result="effect1_dropShadow"/><feBlend in="SourceGraphic" in2="effect1_dropShadow" result="shape"/></filter><clipPath id="clip0"><path transform="rotate(-142.75 1875.95 1864.01)" fill="#fff" d="M1875.95 1864.01h662v801.892h-662z"/></clipPath></defs></svg>