<svg xmlns="http://www.w3.org/2000/svg" width="2429" height="1097"><path fill="#dcc9ed" d="M983.002 883.104c182.898 23.5 376.098 61.5 376.098 61.5 179.6 35.3 224 52.8 321 55.896 69.3 2.3 222.6 7.3 374.2-65.996 188.8-91.4 381.2-307.4 374.2-566.8-2.8-105-40.8-313.9-170.6-359.5-152-53.4-235.1 180.8-550.3 251.3-169.8 38-430.2 35.7-629.2-44.9-40.9-16.6-139.298-60.8-280.698-76.1-21.3-2.3-102.1-11.1-176.1-1.8-240.2 30-398.8 248.4-432.9 295.3-144.4 198.7-256.7 543.1-139.4 640.996 142.4 118.7 456.2-251.196 933.7-189.896z"/></svg>