<svg width="90" height="90" fill="none" xmlns="http://www.w3.org/2000/svg"><g clip-path="url(#clip0)" fill="#8A4BC3"><path d="M58.064 5.806h-18.87a4.36 4.36 0 0 0-4.355 4.355v1.452h2.903V10.16c0-.8.652-1.451 1.452-1.451h18.87V5.806zM39.4 52.272L19.077 49.37a1.454 1.454 0 0 0-1.658 1.437v7.258c0 .723.532 1.336 1.246 1.438l20.322 2.903a1.458 1.458 0 0 0 1.157-.34c.318-.277.501-.676.501-1.097V53.71c0-.723-.531-1.336-1.245-1.438zm-1.658 7.022l-17.42-2.488V52.48l17.42 2.489v4.324zm-19.079 6.014l.41-2.875 20.321 2.903-.41 2.875-20.321-2.903zm-.001 5.807l.411-2.876 20.321 2.903-.41 2.875-20.322-2.902zm0 5.805l.41-2.874 20.322 2.902-.411 2.876-20.321-2.903zm52.261-27.551L50.6 52.272a1.452 1.452 0 0 0-1.245 1.438v7.258a1.454 1.454 0 0 0 1.658 1.437l20.322-2.903a1.452 1.452 0 0 0 1.246-1.438v-7.258a1.454 1.454 0 0 0-1.658-1.437zm-1.246 7.437l-17.419 2.488V54.97l17.42-2.489v4.325zm-19.075 8.529l20.322-2.907.411 2.875-20.322 2.907-.41-2.875zm0 5.805l20.322-2.906.411 2.875-20.32 2.907-.413-2.876zm.001 5.807l20.321-2.907.411 2.876-20.32 2.906-.412-2.875z"/><path d="M88.548 52.258h-4.354a8.68 8.68 0 0 0-2.904.508v-10.67c0-.426-.187-.831-.514-1.107a1.462 1.462 0 0 0-1.177-.325l-26.2 4.367-.846-3.389a16.022 16.022 0 0 0 7.818-9.794c3.596-.428 6.403-3.461 6.403-7.17v-2.904a1.45 1.45 0 0 0-1.451-1.451h-4.355v-3.898c3.427-1.635 5.806-5.124 5.806-9.167V1.452c0-.803-.65-1.452-1.451-1.452h-26.13c-5.602 0-10.16 4.56-10.16 10.161v10.162h-4.356c-.8 0-1.451.648-1.451 1.451v2.903c0 3.71 2.807 6.743 6.403 7.171a16.027 16.027 0 0 0 7.818 9.794l-.846 3.389-26.2-4.365a1.446 1.446 0 0 0-1.177.324c-.327.275-.514.68-.514 1.107v10.67a8.667 8.667 0 0 0-2.904-.509H1.452C.65 52.258 0 52.907 0 53.71v14.516c0 .803.65 1.451 1.452 1.451h4.354c1.02 0 1.994-.185 2.904-.508v13.573c0 .71.514 1.315 1.212 1.431l34.838 5.806a1.436 1.436 0 0 0 .48 0l34.838-5.806a1.451 1.451 0 0 0 1.212-1.431V69.169a8.63 8.63 0 0 0 2.904.508h4.354c.801 0 1.452-.648 1.452-1.451V53.71c0-.803-.65-1.452-1.452-1.452zM63.871 23.226v1.451c0 1.912-1.247 3.523-2.964 4.107.03-.399.06-.797.06-1.203v-4.355h2.904zM31.935 10.16c0-4.002 3.257-7.258 7.259-7.258H63.87v4.355c0 4.002-3.256 7.258-7.258 7.258H31.936V10.16zM26.13 24.677v-1.451h2.903v4.355c0 .406.03.804.061 1.203-1.717-.584-2.964-2.195-2.964-4.107zm5.806 2.904V17.419h24.678c.493 0 .975-.048 1.452-.116v10.278c0 7.204-5.862 13.064-13.065 13.064-7.203 0-13.064-5.86-13.064-13.064zm8.218 15.21a15.883 15.883 0 0 0 9.694 0l.68 2.719-5.528.92-5.526-.921.68-2.72zM2.903 66.774V55.161h2.903a5.812 5.812 0 0 1 5.807 5.807 5.812 5.812 0 0 1-5.807 5.806H2.903zm8.71.668a8.68 8.68 0 0 0 2.903-6.474 8.679 8.679 0 0 0-2.903-6.474V43.81l31.935 5.322v37.702l-31.935-5.322v-14.07zm66.774 14.07l-31.935 5.322V49.133l31.935-5.322v10.684a8.68 8.68 0 0 0-2.903 6.474c0 2.572 1.126 4.877 2.903 6.474v14.07zm8.71-14.738h-2.903a5.812 5.812 0 0 1-5.807-5.806 5.812 5.812 0 0 1 5.807-5.807h2.903v11.613z"/><path d="M55.161 27.58h-2.903c0 4.002-3.256 7.259-7.258 7.259-4.002 0-7.258-3.257-7.258-7.258h-2.903c0 5.601 4.558 10.16 10.16 10.16 5.604 0 10.162-4.559 10.162-10.16zM39.92 24.677a2.18 2.18 0 0 0 2.177-2.177 2.18 2.18 0 0 0-2.178-2.177 2.18 2.18 0 0 0-2.177 2.177c0 1.2.977 2.177 2.177 2.177zm0-2.903c.4 0 .725.327.725.726a.727.727 0 0 1-1.452 0c0-.4.326-.726.726-.726zm10.16 2.903a2.18 2.18 0 0 0 2.178-2.177 2.18 2.18 0 0 0-2.177-2.177 2.18 2.18 0 0 0-2.178 2.177c0 1.2.977 2.177 2.178 2.177zm0-2.903a.727.727 0 0 1 0 1.452.727.727 0 0 1-.725-.726c0-.4.325-.726.726-.726z"/></g><defs><clipPath id="clip0"><path fill="#fff" d="M0 0h90v90H0z"/></clipPath></defs></svg>