<svg width="95" height="104" fill="none" xmlns="http://www.w3.org/2000/svg"><g clip-path="url(#clip0)" fill="#8A4BC3"><path d="M23.28 25.486l2.047-2.242v2.75h3.167v-2.75l2.048 2.242 2.239-2.451-4.287-4.693v-5.426l6.334 2.677v10.4c0 .658.339 1.259.875 1.552.05.026.305.164.709.367v3.282c-.028 3.968 1.753 7.69 4.75 9.924v2.62l-9.257 2.755c-4.81 1.459-8.146 6.244-8.161 11.709v9.395c0 .958.709 1.734 1.584 1.734h44.337c.874 0 1.583-.776 1.583-1.734v-9.395c-.016-5.466-3.353-10.253-8.166-11.71l-9.252-2.755v-2.625c2.966-2.26 4.739-5.962 4.75-9.918v-3.281c.404-.204.659-.348.708-.368.537-.294.876-.895.876-1.551V15.593l8.485-3.573c.614-.256 1.018-.9 1.018-1.62 0-.718-.404-1.362-1.018-1.618L48.064.114a1.47 1.47 0 0 0-1.136 0L26.343 8.782c-.61.256-1.012.896-1.015 1.61v7.95l-4.287 4.693 2.24 2.45zm27.936 20.863l-3.72 3.393-3.72-3.39c.347-.323.548-.793.553-1.29v-2.254a9.87 9.87 0 0 0 6.334 0v2.254c.005.497.206.967.553 1.287zM68.08 58.202v7.662h-4.75V55.463h-3.167v10.4H34.828v-10.4h-3.167v10.4h-4.75v-7.661c.012-3.904 2.395-7.323 5.832-8.364l7.469-2.225 6.27 5.721a1.48 1.48 0 0 0 2.028 0l6.27-5.72 7.464 2.222c3.439 1.04 5.824 4.46 5.837 8.366zM55.413 31.194c-.003 3.097-1.517 5.957-3.97 7.502-2.452 1.544-5.47 1.539-7.918-.015a7.595 7.595 0 0 1-1.628-1.368c-1.493-1.615-2.328-3.82-2.318-6.119v-1.86a22.88 22.88 0 0 0 7.917 1.86 22.88 22.88 0 0 0 7.917-1.86v1.86zm1.584-6.303a25.367 25.367 0 0 1-9.501 2.836 25.432 25.432 0 0 1-9.5-2.838v-7.974l8.932 3.762c.365.153.77.153 1.136 0l8.933-3.76v7.974zM47.496 3.58l16.173 6.811-16.173 6.81-16.173-6.81 16.173-6.81zm35.562 86.36c.649-.366.985-1.172.813-1.95-.172-.777-.808-1.325-1.539-1.325h-5.868c-1.42-1.262-2.185-3.204-2.049-5.2-.178-2.123.705-4.185 2.309-5.393.65-.366.986-1.172.813-1.95-.172-.777-.808-1.324-1.538-1.324H18.994c-4.373 0-7.918 3.88-7.918 8.667 0 4.786 3.545 8.667 7.918 8.667h.04c-1.047 1.492-1.618 3.32-1.624 5.2.006 4.785 3.547 8.662 7.918 8.668h57.004c.723-.006 1.351-.547 1.525-1.316.172-.773-.152-1.577-.792-1.957-1.609-1.205-2.495-3.27-2.316-5.394-.178-2.123.705-4.185 2.309-5.394zM71.363 79.73H30.078v3.47h41.285a10.802 10.802 0 0 0 1.025 3.466H26.91v-10.4h45.477a10.79 10.79 0 0 0-1.025 3.466zm-47.619 6.934h-1.583v-10.4h1.583v10.4zm6.334 3.467v10.401h-1.584v-10.4h1.584zm-15.835-8.667c0-2.872 2.127-5.2 4.75-5.2v10.4c-2.623 0-4.75-2.328-4.75-5.2zm6.334 13.868c0-2.872 2.127-5.2 4.75-5.2v10.4c-2.623 0-4.75-2.328-4.75-5.2zm12.668 5.2v-10.4h45.477a10.79 10.79 0 0 0-1.025 3.466H36.412v3.467h41.285a10.799 10.799 0 0 0 1.025 3.467H33.245zM9.493 50.263h6.334v3.466H9.493v-3.466zm.884 10.827l6.12-1.796.82 3.35-6.12 1.795-.82-3.35zm67.299 1.551l.82-3.348 6.119 1.794-.819 3.35-6.12-1.796zm1.489-12.378H85.5v3.466h-6.334v-3.466zM77.69 41.33l6.12-1.797.82 3.35-6.119 1.796-.82-3.35zm-3.56-8.17l5.485-3.468 1.584 3.003-5.486 3.467-1.583-3.002z"/><path d="M68.772 26.255l4.478-4.903 2.24 2.451-4.479 4.903-2.239-2.45zm-54.979 6.439l1.583-3.002 5.486 3.467-1.584 3.003-5.485-3.468zm-3.409 10.218l.82-3.35 6.12 1.797-.82 3.349-6.12-1.796z"/></g><defs><clipPath id="clip0"><path fill="#fff" d="M0 0h95v104H0z"/></clipPath></defs></svg>