<svg width="93" height="93" fill="none" xmlns="http://www.w3.org/2000/svg"><path d="M77.742 31.287c5.258 0 9.536-4.277 9.536-9.536 0-5.258-4.278-9.536-9.536-9.536s-9.536 4.278-9.536 9.536 4.278 9.536 9.536 9.536zm4.182-14.907a7.455 7.455 0 0 1-8.364 0 6.776 6.776 0 0 1 4.182-1.44c1.576 0 3.027.539 4.182 1.44zm-10.143 2.08a10.144 10.144 0 0 0 5.961 1.929c2.096 0 4.19-.644 5.962-1.928.54.976.85 2.097.85 3.29a6.82 6.82 0 0 1-6.812 6.812 6.82 6.82 0 0 1-6.811-6.812c0-1.193.309-2.314.85-3.29zm-9.478 46.43c-.753 0-1.363.61-1.363 1.363v10.37l-4.517 1.507a1.363 1.363 0 0 0 .861 2.585l5.45-1.817a1.36 1.36 0 0 0 .93-1.292V66.253a1.36 1.36 0 0 0-1.361-1.362z" fill="#8A4BC3"/><path d="M92.86 75.63l-2.585-9.558v-5.268c0-.752-.61-1.362-1.362-1.362H84.41a9.508 9.508 0 0 0 2.868-6.805v-13.63a5 5 0 0 0-4.995-4.995h-9.082a5.003 5.003 0 0 0-4.789 3.577c-6.22-.585-11.104-5.834-11.104-12.205a1.362 1.362 0 0 0-2.725 0c0 7.803 5.997 14.23 13.623 14.92v5.515H49.225c-.753 0-1.363.61-1.363 1.362v32.241a1.362 1.362 0 0 0 2.725 0V62.166h17.62v14.532a4.091 4.091 0 0 0 4.086 4.086h16.62a4.091 4.091 0 0 0 3.946-5.153zm-5.31-13.464v2.725H70.93v-2.725h16.62zm-9.808-2.724h-6.811v-5.45h13.486c-.633 3.106-3.385 5.45-6.675 5.45zm-4.54-22.705h9.081a2.273 2.273 0 0 1 2.27 2.27v12.26H70.932v-12.26a2.273 2.273 0 0 1 2.27-2.27zm-4.996 11.806v2.725h-17.62v-2.725h17.62zm-17.62 10.899v-5.45h17.62v5.45h-17.62zM88.914 78.06h-16.62a1.364 1.364 0 0 1-1.362-1.362v-9.082h16.94l2.358 8.725a1.365 1.365 0 0 1-1.316 1.719zm-43.63-56.886a4.507 4.507 0 0 0-2.57-.785h-3.397c-.663-4.615-4.641-8.174-9.437-8.174-4.796 0-8.774 3.559-9.437 8.174h-3.388a4.538 4.538 0 0 0-2.578.785 4.512 4.512 0 0 0-1.909 2.904 4.512 4.512 0 0 0 .705 3.404 4.512 4.512 0 0 0 2.904 1.908 4.51 4.51 0 0 0 3.403-.705 4.516 4.516 0 0 0 1.678-2.103l.169-.426c1.593 3.047 4.783 5.131 8.453 5.131 3.67 0 6.86-2.084 8.454-5.13l.168.425a4.516 4.516 0 0 0 1.677 2.104 4.507 4.507 0 0 0 3.404.704 4.51 4.51 0 0 0 2.904-1.908 4.511 4.511 0 0 0 .705-3.403 4.511 4.511 0 0 0-1.908-2.905zm-8.747-.861a14.82 14.82 0 0 1-9.5-4.75 6.768 6.768 0 0 1 2.843-.623c3.262 0 5.995 2.305 6.657 5.373zm-17.814 5.269a1.809 1.809 0 0 1-.674.85 1.804 1.804 0 0 1-1.361.282 1.803 1.803 0 0 1-1.162-.764 1.805 1.805 0 0 1-.282-1.361 1.8 1.8 0 0 1 .764-1.162 1.81 1.81 0 0 1 1.026-.314H19.7l-.978 2.469zm11.157 2.98a6.82 6.82 0 0 1-6.812-6.81c0-1.756.668-3.358 1.762-4.567a17.521 17.521 0 0 0 11.735 5.867c-.608 3.136-3.374 5.51-6.685 5.51zm14.354-2.611a1.803 1.803 0 0 1-1.162.763c-.477.09-.96-.01-1.362-.282a1.803 1.803 0 0 1-.67-.842l-.981-2.477h2.663c.37-.006.725.107 1.03.314.401.273.673.686.763 1.162.091.477-.009.96-.282 1.362zM14.44 64.89c-.752 0-1.362.61-1.362 1.363v10.37L8.56 78.13a1.363 1.363 0 0 0 .862 2.585l5.45-1.817c.555-.185.93-.706.93-1.292V66.253c0-.752-.61-1.362-1.362-1.362z" fill="#8A4BC3"/><path d="M42.413 66.072v-5.268c0-.752-.61-1.362-1.362-1.362h-4.504a9.508 9.508 0 0 0 2.869-6.812V39.007a5 5 0 0 0-4.995-4.995h-9.082a5.003 5.003 0 0 0-4.789 3.577c-6.22-.585-11.105-5.834-11.105-12.205a1.362 1.362 0 0 0-2.724 0c0 7.803 5.996 14.23 13.623 14.92v5.515H1.362C.61 45.819 0 46.429 0 47.18v32.241a1.362 1.362 0 0 0 2.725 0V62.166h17.619v14.532a4.091 4.091 0 0 0 4.087 4.086h16.62a4.091 4.091 0 0 0 3.946-5.153l-2.584-9.559zm-2.724-3.906v2.725h-16.62v-2.725h16.62zm-14.35-25.43h9.082a2.273 2.273 0 0 1 2.27 2.271V52.63a6.82 6.82 0 0 1-6.811 6.812h-6.812V39.007a2.273 2.273 0 0 1 2.27-2.27zM2.725 48.544h17.619v2.725H2.724v-2.725zm0 10.899v-5.45h17.619v5.45H2.724zM41.05 78.06H24.43a1.364 1.364 0 0 1-1.363-1.362v-9.082h16.94l2.358 8.725a1.365 1.365 0 0 1-1.315 1.719z" fill="#8A4BC3"/></svg>