<svg xmlns="http://www.w3.org/2000/svg" width="1474" height="837" viewBox="0 0 1474 837"><g><g><path fill="#dcc9ed" d="M1279.972 836.862C618.913 658.98 178.168 400.666 177.247 230.468c-.31-62.172 57.799-152.554 173.671-198.89 90.025-35.997 190.603-35.682 310.63-26.32 167.625 13.04 446.123 49.353 811.744 164.393l-193.32 667.211z"/></g><g><path fill="#b3edfa" fill-opacity=".5" d="M1169.569 530.132s-481.383 79.245-602.486 71.85c-121.103-7.398-266.426 2.112-437.484-173.284-171.06-175.397-148.35-275.774-71.15-344.453 77.21-68.679 125.646-73.962 410.238 10.566 284.59 84.528 700.882-42.264 700.882-42.264z"/></g></g></svg>