<svg width="49" height="49" fill="none" xmlns="http://www.w3.org/2000/svg"><g clip-path="url(#clip0)"><path d="M28.99 24.54L48.068 5.46a3.17 3.17 0 0 0 0-4.489 3.171 3.171 0 0 0-4.489 0L24.5 20.051 5.42.971a3.171 3.171 0 0 0-4.489 0 3.17 3.17 0 0 0 0 4.489l19.08 19.08L.93 43.62a3.17 3.17 0 0 0 0 4.49 3.17 3.17 0 0 0 4.489 0L24.5 29.028l19.08 19.08c.62.62 1.432.93 2.244.93.813 0 1.626-.31 2.245-.93a3.17 3.17 0 0 0 0-4.489l-19.08-19.08z" fill="#8A4BC3"/></g><defs><clipPath id="clip0"><path fill="#fff" d="M0 0h49v49H0z"/></clipPath></defs></svg>