<svg width="1920" height="1865" viewBox="0 0 1920 1865" fill="none" xmlns="http://www.w3.org/2000/svg">
<path d="M1222 1095.1C1404.9 1118.6 1598.1 1156.6 1598.1 1156.6C1777.7 1191.9 1822.1 1209.4 1919.1 1212.5C1988.4 1214.8 2141.7 1219.8 2293.3 1146.5C2482.1 1055.1 2674.5 839.1 2667.5 579.7C2664.7 474.7 2626.7 265.8 2496.9 220.2C2344.9 166.8 2261.8 401 1946.6 471.5C1776.8 509.5 1516.4 507.2 1317.4 426.6C1276.5 410 1178.1 365.8 1036.7 350.5C1015.4 348.2 934.6 339.4 860.6 348.7C620.4 378.7 461.8 597.1 427.7 644C283.3 842.7 171 1187.1 288.3 1285C430.7 1403.7 744.5 1033.8 1222 1095.1Z" fill="#DCC9ED"/>
<g filter="url(#filter0_d)">
<path d="M222.03 724.271C240.153 639.845 290.439 556.651 379.56 500.695C580.804 374.263 896.262 423.49 1138.83 343.66C1235.72 311.744 1317.37 260.301 1398.92 210.663C1480.48 161.025 1565.42 111.716 1665.59 85.5432C1765.76 59.3706 1885.06 59.7808 1971.09 105.316C2032.53 137.724 2069.97 188.675 2098.85 239.625C2201.01 419.552 2220.83 623.518 2154.41 812.06C2117.76 915.93 2050.85 1019.47 1931.06 1082.4C2043.04 1244.67 1658.92 1267.4 1506.17 1272.41C1197.38 1282.42 972.8 1263.31 667.876 1217.39C545.733 1199 357.364 1121.06 285.47 1056.9C210.987 990.357 204.704 804.758 222.03 724.271Z" fill="#C79ED6" fill-opacity="0.6"/>
</g>
<g clip-path="url(#clip0)">
<path d="M2353.61 1235.85C2073.21 1007.04 1793.06 943.104 1679.31 1050.58C1637.76 1089.85 1591.69 1177.2 1589.13 1266.47C1587.14 1335.83 1611.96 1387.61 1647.58 1443.7C1697.29 1522.06 1789.66 1642.95 1955.85 1758.94C2088.46 1584.55 2221 1410.25 2353.61 1235.85Z" fill="#B3EDFA" fill-opacity="0.6"/>
</g>
<defs>
<filter id="filter0_d" x="208" y="62" width="1999" height="1227" filterUnits="userSpaceOnUse" color-interpolation-filters="sRGB">
<feFlood flood-opacity="0" result="BackgroundImageFix"/>
<feColorMatrix in="SourceAlpha" type="matrix" values="0 0 0 0 0 0 0 0 0 0 0 0 0 0 0 0 0 0 127 0"/>
<feOffset dx="4" dy="4"/>
<feGaussianBlur stdDeviation="5"/>
<feColorMatrix type="matrix" values="0 0 0 0 0 0 0 0 0 0 0 0 0 0 0 0 0 0 0.1 0"/>
<feBlend mode="normal" in2="BackgroundImageFix" result="effect1_dropShadow"/>
<feBlend mode="normal" in="SourceGraphic" in2="effect1_dropShadow" result="shape"/>
</filter>
<clipPath id="clip0">
<rect x="1875.95" y="1864.01" width="662" height="801.892" transform="rotate(-142.75 1875.95 1864.01)" fill="white"/>
</clipPath>
</defs>
</svg>
