<svg width="90" height="90" viewBox="0 0 90 90" fill="none" xmlns="http://www.w3.org/2000/svg">
<g clip-path="url(#clip0)">
<path d="M58.0644 5.8064H39.1935C36.7928 5.8064 34.8386 7.76055 34.8386 10.1612V11.6128H37.7418V10.1612C37.7418 9.3603 38.3939 8.70962 39.1935 8.70962H58.0644V5.8064Z" fill="#8A4BC3"/>
<path d="M39.3999 52.2721L19.0773 49.3689C18.6577 49.308 18.2381 49.4363 17.9206 49.7091C17.6023 49.9863 17.4194 50.3853 17.4194 50.8064V58.0644C17.4194 58.7874 17.951 59.3998 18.6648 59.5019L38.9874 62.4051C39.0568 62.415 39.1256 62.4193 39.1936 62.4193C39.5402 62.4193 39.879 62.2945 40.1441 62.0649C40.4624 61.7877 40.6452 61.3887 40.6452 60.9676V53.7096C40.6452 52.9866 40.1136 52.3742 39.3999 52.2721ZM37.742 59.2942L20.3227 56.8056V52.4812L37.742 54.9698V59.2942Z" fill="#8A4BC3"/>
<path d="M18.6626 65.3084L19.073 62.4329L39.3942 65.3361L38.9838 68.211L18.6626 65.3084Z" fill="#8A4BC3"/>
<path d="M18.6619 71.1148L19.073 68.2393L39.3941 71.1418L38.9837 74.0173L18.6619 71.1148Z" fill="#8A4BC3"/>
<path d="M18.6619 76.9205L19.0723 74.0457L39.3941 76.9482L38.983 79.8237L18.6619 76.9205Z" fill="#8A4BC3"/>
<path d="M70.9227 49.3689L50.6001 52.2721C49.8863 52.3742 49.3547 52.9866 49.3547 53.7096V60.9676C49.3547 61.3887 49.5376 61.7877 49.8559 62.0649C50.1209 62.2945 50.4597 62.4193 50.8063 62.4193C50.8744 62.4193 50.9431 62.415 51.0126 62.4051L71.3352 59.5019C72.0489 59.3998 72.5805 58.7874 72.5805 58.0644V50.8064C72.5805 50.3853 72.3977 49.9863 72.0794 49.7091C71.7633 49.4363 71.3423 49.308 70.9227 49.3689ZM69.6773 56.8056L52.258 59.2942V54.9698L69.6773 52.4812V56.8056Z" fill="#8A4BC3"/>
<path d="M50.6023 65.3347L70.9235 62.428L71.3353 65.3029L51.0134 68.2096L50.6023 65.3347Z" fill="#8A4BC3"/>
<path d="M50.6023 71.1404L70.9242 68.2336L71.3353 71.1092L51.0141 74.016L50.6023 71.1404Z" fill="#8A4BC3"/>
<path d="M50.603 76.9468L70.9242 74.04L71.3353 76.9156L51.0141 79.8224L50.603 76.9468Z" fill="#8A4BC3"/>
<path d="M88.5484 52.2581H84.1936C83.1743 52.2581 82.2004 52.4438 81.2903 52.7663V42.0968C81.2903 41.6701 81.1032 41.2646 80.7765 40.9889C80.4497 40.7132 80.0173 40.5955 79.5991 40.6643L53.3992 45.0305L52.5529 41.6424C56.3386 39.6011 59.1965 36.0727 60.3709 31.8483C63.9667 31.4202 66.7742 28.3865 66.7742 24.6774V21.7742C66.7742 20.9711 66.1235 20.3226 65.3226 20.3226H60.9677V16.4249C64.3948 14.7904 66.7742 11.301 66.7742 7.25806V1.45161C66.7742 0.648548 66.1235 0 65.3226 0H39.1936C33.5905 0 29.0323 4.55968 29.0323 10.1613V20.3226H24.6774C23.8765 20.3226 23.2258 20.9711 23.2258 21.7742V24.6774C23.2258 28.3865 26.0333 31.4202 29.6291 31.8483C30.805 36.0727 33.6614 39.6011 37.4471 41.6424L36.6008 45.0305L10.4009 40.6657C9.97842 40.5955 9.54889 40.7132 9.22355 40.9903C8.8968 41.2646 8.70968 41.6701 8.70968 42.0968V52.7663C7.79958 52.4438 6.8257 52.2581 5.80645 52.2581H1.45161C0.650674 52.2581 0 52.9066 0 53.7097V68.2258C0 69.0289 0.650674 69.6774 1.45161 69.6774H5.80645C6.8257 69.6774 7.79958 69.4917 8.70968 69.1692V82.7419C8.70968 83.4514 9.22355 84.0568 9.92172 84.173L44.7604 89.9794C44.8405 89.9929 44.9199 90 45 90C45.0801 90 45.1595 89.9929 45.2396 89.9794L80.0783 84.173C80.7765 84.0568 81.2903 83.4514 81.2903 82.7419V69.1692C82.2004 69.4931 83.1743 69.6774 84.1936 69.6774H88.5484C89.3493 69.6774 90 69.0289 90 68.2258V53.7097C90 52.9066 89.3493 52.2581 88.5484 52.2581ZM63.871 23.2258V24.6774C63.871 26.589 62.6242 28.2001 60.9068 28.7842C60.9373 28.3851 60.9677 27.9868 60.9677 27.5806V23.2258H63.871ZM31.9355 10.1613C31.9355 6.15943 35.1917 2.90323 39.1936 2.90323H63.871V7.25806C63.871 11.2599 60.6148 14.5161 56.6129 14.5161H31.9355V10.1613ZM26.129 24.6774V23.2258H29.0323V27.5806C29.0323 27.9868 29.0627 28.3851 29.0932 28.7842C27.3758 28.2001 26.129 26.589 26.129 24.6774ZM31.9355 27.5806V17.4194H56.6129C57.1062 17.4194 57.5882 17.3712 58.0645 17.3031V27.5806C58.0645 34.7848 52.2028 40.6452 45 40.6452C37.7972 40.6452 31.9355 34.7848 31.9355 27.5806ZM40.1533 42.7907C41.6828 43.2798 43.3102 43.5484 45 43.5484C46.6898 43.5484 48.3172 43.2798 49.8467 42.7907L50.5265 45.5096L45 46.4311L39.4735 45.5096L40.1533 42.7907ZM2.90323 66.7742V55.1613H5.80645C9.00879 55.1613 11.6129 57.7654 11.6129 60.9677C11.6129 64.1701 9.00879 66.7742 5.80645 66.7742H2.90323ZM11.6129 67.4419C13.3899 65.8464 14.5161 63.54 14.5161 60.9677C14.5161 58.3955 13.3899 56.0905 11.6129 54.4936V43.8099L43.5484 49.1316V86.8338L11.6129 81.5122V67.4419ZM78.3871 81.5122L46.4516 86.8338V49.133L78.3871 43.8114V54.495C76.6101 56.0905 75.4839 58.3969 75.4839 60.9692C75.4839 63.5414 76.6101 65.8464 78.3871 67.4433V81.5122ZM87.0968 66.7742H84.1936C80.9912 66.7742 78.3871 64.1701 78.3871 60.9677C78.3871 57.7654 80.9912 55.1613 84.1936 55.1613H87.0968V66.7742Z" fill="#8A4BC3"/>
<path d="M55.1612 27.5806H52.258C52.258 31.5824 49.0018 34.8386 44.9999 34.8386C40.9981 34.8386 37.7418 31.5824 37.7418 27.5806H34.8386C34.8386 33.1822 39.3969 37.7419 44.9999 37.7419C50.6029 37.7419 55.1612 33.1822 55.1612 27.5806Z" fill="#8A4BC3"/>
<path d="M39.9194 24.6773C41.1201 24.6773 42.0968 23.7006 42.0968 22.4999C42.0968 21.2992 41.1201 20.3225 39.9194 20.3225C38.7187 20.3225 37.7419 21.2992 37.7419 22.4999C37.7419 23.7006 38.7187 24.6773 39.9194 24.6773ZM39.9194 21.7741C40.3198 21.7741 40.6452 22.1009 40.6452 22.4999C40.6452 22.899 40.3198 23.2257 39.9194 23.2257C39.5189 23.2257 39.1936 22.899 39.1936 22.4999C39.1936 22.1009 39.5189 21.7741 39.9194 21.7741Z" fill="#8A4BC3"/>
<path d="M50.0807 24.6773C51.2814 24.6773 52.2582 23.7006 52.2582 22.4999C52.2582 21.2992 51.2814 20.3225 50.0807 20.3225C48.88 20.3225 47.9033 21.2992 47.9033 22.4999C47.9033 23.7006 48.88 24.6773 50.0807 24.6773ZM50.0807 21.7741C50.4812 21.7741 50.8065 22.1009 50.8065 22.4999C50.8065 22.899 50.4812 23.2257 50.0807 23.2257C49.6803 23.2257 49.3549 22.899 49.3549 22.4999C49.3549 22.1009 49.6803 21.7741 50.0807 21.7741Z" fill="#8A4BC3"/>
</g>
<defs>
<clipPath id="clip0">
<rect width="90" height="90" fill="white"/>
</clipPath>
</defs>
</svg>
