<svg width="92" height="92" viewBox="0 0 92 92" fill="none" xmlns="http://www.w3.org/2000/svg">
<g filter="url(#filter0_dd)">
<g clip-path="url(#clip0)">
<path d="M71.2 49V29.4C71.2199 20.1906 64.3388 12.4271 55.1937 11.3402L59.8599 2.02551C60.0773 1.59074 60.0534 1.07395 59.7963 0.660374C59.5393 0.247483 59.0868 -0.00271219 58.6 2.21849e-05H33.4C32.9147 2.21849e-05 32.4642 0.250901 32.2085 0.663792C31.9536 1.076 31.9303 1.59143 32.147 2.02551L36.8078 11.3402C27.6777 12.4558 20.8117 20.2023 20.8 29.4V54.6H23.6V29.4C23.6103 20.8988 30.4989 14.0103 39 14H53C57.0859 13.9939 61.007 15.6147 63.8958 18.5042C66.7854 21.3931 68.4062 25.3142 68.4 29.4V49H71.2ZM52.1346 11.2H39.8655L35.6655 2.80002H56.3346L52.1346 11.2Z" fill="#8A4BC3"/>
<path d="M34.1 20.9146C34.8663 20.4695 35.69 20.1312 36.5486 19.9097L35.8486 17.1992C34.7446 17.4856 33.6844 17.9204 32.6973 18.4912L34.1 20.9146Z" fill="#8A4BC3"/>
<path d="M26.4002 35H29.2002V29.4C29.1934 26.7497 30.268 24.2115 32.1766 22.372L30.2263 20.3643C27.7729 22.7288 26.3906 25.9923 26.4002 29.4V35Z" fill="#8A4BC3"/>
<path d="M7.99288 68.8071L31.7607 81.77C34.4356 83.2323 37.4353 83.9992 40.4841 83.9999H86.6C87.3731 83.9999 88 83.3731 88 82.5999V57.3999C88 56.6268 87.3731 55.9999 86.6 55.9999H75.886L75.7261 55.8755C74.082 54.5917 72.2644 53.5472 70.3277 52.7713C63.5349 49.9993 55.8212 50.6809 49.6189 54.5999H39C36.7708 54.5992 34.6742 55.6609 33.3549 57.458C32.0362 59.2552 31.6521 61.5733 32.3206 63.6999L15.0141 55.0285C12.4438 53.7379 9.36143 54.0325 7.08301 55.7873C5.14571 57.2386 4.00411 59.5156 4.00001 61.9363V62.0901C3.99659 64.8921 5.5292 67.4713 7.99288 68.8071ZM76.8 58.7999H85.2V81.1999H76.8V58.7999ZM6.80001 61.9363C6.81026 60.3688 7.5629 58.8984 8.82891 57.9741C10.2542 56.8988 12.1669 56.7273 13.761 57.5319L35.5745 68.4516C35.768 68.5493 35.9826 68.5999 36.2 68.5999H57.2V65.7999H39C36.6806 65.7999 34.8 63.9194 34.8 61.5999C34.8 59.2805 36.6806 57.3999 39 57.3999H50.0318C50.306 57.3992 50.5739 57.3193 50.8036 57.1689C56.2888 53.5568 63.2033 52.8827 69.2832 55.3683C70.9751 56.0464 72.5631 56.959 74 58.0787V81.1999H40.4841C37.9042 81.1992 35.3667 80.5498 33.1033 79.3125L9.32862 66.3475C7.76729 65.5005 6.79659 63.866 6.80001 62.0901V61.9363Z" fill="#8A4BC3"/>
<path d="M79.6001 74.2H82.4001V77H79.6001V74.2Z" fill="#8A4BC3"/>
<path d="M47.4001 49V46.2001H48.8001C51.8927 46.2001 54.4001 43.6926 54.4001 40.6C54.4001 37.5075 51.8927 35 48.8001 35H43.2001C41.6538 35 40.4001 33.7463 40.4001 32.2C40.4001 30.6538 41.6538 29.4 43.2001 29.4H53.0001V26.6H47.4001V23.8H44.6001V26.6H43.2001C40.1075 26.6 37.6001 29.1075 37.6001 32.2C37.6001 35.2926 40.1075 37.8 43.2001 37.8H48.8001C50.3464 37.8 51.6001 39.0538 51.6001 40.6C51.6001 42.1463 50.3464 43.4001 48.8001 43.4001H39.0001V46.2001H44.6001V49H47.4001Z" fill="#8A4BC3"/>
</g>
</g>
<defs>
<filter id="filter0_dd" x="0" y="0" width="92" height="92" filterUnits="userSpaceOnUse" color-interpolation-filters="sRGB">
<feFlood flood-opacity="0" result="BackgroundImageFix"/>
<feColorMatrix in="SourceAlpha" type="matrix" values="0 0 0 0 0 0 0 0 0 0 0 0 0 0 0 0 0 0 127 0"/>
<feOffset dy="4"/>
<feGaussianBlur stdDeviation="2"/>
<feColorMatrix type="matrix" values="0 0 0 0 0 0 0 0 0 0 0 0 0 0 0 0 0 0 0.25 0"/>
<feBlend mode="normal" in2="BackgroundImageFix" result="effect1_dropShadow"/>
<feColorMatrix in="SourceAlpha" type="matrix" values="0 0 0 0 0 0 0 0 0 0 0 0 0 0 0 0 0 0 127 0"/>
<feOffset dy="4"/>
<feGaussianBlur stdDeviation="2"/>
<feColorMatrix type="matrix" values="0 0 0 0 0 0 0 0 0 0 0 0 0 0 0 0 0 0 0.25 0"/>
<feBlend mode="normal" in2="effect1_dropShadow" result="effect2_dropShadow"/>
<feBlend mode="normal" in="SourceGraphic" in2="effect2_dropShadow" result="shape"/>
</filter>
<clipPath id="clip0">
<rect x="4" width="84" height="84" fill="white"/>
</clipPath>
</defs>
</svg>
