<svg width="94" height="94" viewBox="0 0 94 94" fill="none" xmlns="http://www.w3.org/2000/svg">
<g clip-path="url(#clip0)">
<path d="M43.2058 23.8301C42.3785 23.8301 41.7077 24.5008 41.7077 25.3281C41.7129 25.6712 41.5329 25.9901 41.2359 26.1627C40.9397 26.336 40.5732 26.336 40.277 26.1627C39.9808 25.9901 39.8008 25.6712 39.8052 25.3281C39.8052 24.5008 39.1345 23.8301 38.3072 23.8301C37.4799 23.8301 36.8092 24.5008 36.8092 25.3281C36.7997 26.7449 37.5501 28.0579 38.7753 28.7689C40.0005 29.4806 41.5132 29.4806 42.7384 28.7689C43.9635 28.0579 44.714 26.7449 44.7038 25.3281C44.7038 24.5008 44.033 23.8301 43.2058 23.8301Z" fill="#8A4BC3"/>
<path d="M53.0038 29.275C55.1828 29.2728 56.9486 27.5071 56.9515 25.3281C56.9515 24.5008 56.2807 23.8301 55.4535 23.8301C54.6262 23.8301 53.9554 24.5008 53.9554 25.3281C53.9554 25.8533 53.529 26.279 53.0038 26.279C52.4779 26.279 52.0522 25.8533 52.0522 25.3281C52.0522 24.5008 51.3814 23.8301 50.5542 23.8301C49.7269 23.8301 49.0562 24.5008 49.0562 25.3281C49.0583 27.5071 50.8248 29.2728 53.0038 29.275Z" fill="#8A4BC3"/>
<path d="M16.3526 87.8581L46.9143 93.7851C47.0064 93.8034 47.0993 93.8129 47.1929 93.8129C47.2873 93.8129 47.3817 93.8034 47.4738 93.7851L78.0216 87.8581C78.7201 87.7184 79.219 87.0996 79.2066 86.3872V47.1709C79.219 46.7269 79.0281 46.3019 78.6887 46.0159C78.35 45.7292 77.8987 45.6129 77.4635 45.6999L71.6733 46.8044C69.6479 43.3395 65.9402 41.2059 61.9267 41.1949H56.3617V38.3517C56.9235 37.88 57.554 37.3592 58.107 36.793C61.0731 33.7662 62.7327 29.6964 62.7283 25.4591V20.2702C63.9155 20.6147 65.1655 20.6798 66.382 20.4603C69.2412 19.9864 71.6206 18.0056 72.6052 15.2802C73.5897 12.5548 73.025 9.50972 71.1291 7.31828C69.2332 5.12683 66.3015 4.13059 63.4627 4.7121C62.1051 4.97469 60.8331 5.5701 59.7623 6.44565C55.7678 0.841236 48.6061 -1.53453 42.0537 0.570598C35.5014 2.67646 31.0644 8.77899 31.0826 15.6613V25.4591C31.0761 29.6957 32.7328 33.7662 35.6981 36.793C36.4193 37.5347 37.0747 38.1945 38.011 38.7716V41.1949H32.4461C28.4318 41.2081 24.7234 43.341 22.6936 46.8044L16.8968 45.6904C16.4652 45.607 16.019 45.7248 15.6855 46.0101C15.3468 46.2997 15.1567 46.7254 15.1669 47.1709V86.3872C15.1552 87.0996 15.654 87.7184 16.3526 87.8581ZM47.1864 90.7883L45.1266 90.3794V54.2148L46.926 54.5688C47.1015 54.6054 47.2829 54.6054 47.4592 54.5688L49.2461 54.2148V90.3794L47.1864 90.7883ZM76.2105 71.9043H73.5978C73.0067 71.9146 72.4355 71.6886 72.012 71.276C71.5877 70.8635 71.3471 70.2981 71.342 69.707V65.2752C71.3478 64.6863 71.5899 64.1246 72.0142 63.7157C72.4384 63.3075 73.0097 63.0866 73.5978 63.1035H76.2105V71.9043ZM76.2105 60.1074H73.5978C72.2146 60.0913 70.8826 60.6282 69.8966 61.5981C68.9106 62.5688 68.3525 63.892 68.3459 65.2752V69.707C68.3518 71.0932 68.9084 72.4193 69.8944 73.3936C70.8797 74.3679 72.2124 74.9099 73.5978 74.9004H76.2105V85.1517L52.2422 89.7987V53.634L70.7765 50.0455C70.8058 50.0477 70.8468 50.0521 70.876 50.0521C71.0874 50.0521 71.2966 50.0082 71.4904 49.9226C71.5029 49.9168 71.4904 49.9102 71.5029 49.9036L76.2105 48.9864V60.1074ZM68.4871 47.4233L48.6844 51.2817V48.4509L55.2894 44.191H61.9267C64.4948 44.2005 66.9152 45.3927 68.4871 47.4233ZM64.0391 7.65182C65.3608 7.37387 66.7389 7.64889 67.8529 8.41326C70.0195 9.92226 70.6544 12.8473 69.3085 15.1192C67.9634 17.3912 65.0931 18.2396 62.7283 17.0657V15.6613C62.7298 13.3945 62.2419 11.154 61.2983 9.09279C62.0517 8.35548 63.0048 7.85443 64.0391 7.65182ZM59.7308 15.5179C58.276 14.202 57.1956 12.5233 56.6002 10.6537C56.4517 10.062 55.9594 9.6187 55.3553 9.53385C54.7511 9.44901 54.1557 9.73866 53.8499 10.2668C51.3308 14.6189 47.1198 17.07 41.2828 17.5543C38.8748 17.7357 36.453 17.6047 34.0787 17.1644V15.6613C34.0706 14.6833 34.1745 13.7075 34.3888 12.753C35.5153 12.9454 36.6556 13.0412 37.7981 13.0405C38.7395 13.0412 39.6802 12.9746 40.612 12.8422C44.3395 12.3097 49.4766 10.4262 53.4015 4.58995C57.2783 6.87355 59.6789 11.0187 59.7301 15.5179H59.7308ZM46.8799 2.80812C48.1424 2.80739 49.3983 2.99391 50.6067 3.36037C47.9917 7.03959 44.5312 9.22372 40.2968 9.85935C38.6751 10.0971 37.0286 10.1044 35.4048 9.88056C37.5904 5.54742 42.0274 2.81251 46.8799 2.80812ZM34.0787 25.4591V20.2094C35.7661 20.4976 37.4756 20.6403 39.1879 20.6359C39.9084 20.6359 40.6493 20.6096 41.424 20.5481C47.1542 20.0931 51.7302 17.879 54.8359 14.0996C55.9989 16.2018 57.6857 17.9683 59.7323 19.2271V25.4591C59.733 28.9167 58.3762 32.2353 55.9543 34.7025C53.5851 37.18 50.3082 38.5851 46.8799 38.5939C43.4706 38.5939 40.2741 37.2114 37.831 34.7025C35.4158 32.2331 34.0684 28.913 34.0787 25.4591ZM46.8996 41.5899C49.132 41.5855 51.3381 41.0998 53.3657 40.165V41.9117L47.2032 45.8543L41.007 41.9088V40.4174C42.8752 41.1905 44.8772 41.5892 46.8996 41.5899ZM32.4461 44.191H39.0467L45.6883 48.4531V51.2817L25.8864 47.4233C27.459 45.3942 29.8787 44.2019 32.4461 44.191ZM42.1305 53.634V89.7987L18.1622 85.1517V74.9004H20.8459C22.2247 74.9077 23.5486 74.362 24.5215 73.3863C25.4951 72.4105 26.0371 71.0851 26.0268 69.707V65.2752C26.0363 63.8993 25.4936 62.5775 24.5193 61.6054C23.545 60.6341 22.2218 60.0943 20.8459 60.1074H18.1622V48.9871L42.1305 53.634ZM18.1622 71.9043V63.1035H20.8459C21.4274 63.0896 21.9892 63.3134 22.4017 63.7237C22.8135 64.1334 23.041 64.6936 23.0308 65.2752V69.707C23.0425 70.2907 22.8165 70.8547 22.4047 71.2687C21.9921 71.6827 21.4304 71.9124 20.8459 71.9043H18.1622Z" fill="#8A4BC3"/>
</g>
<defs>
<clipPath id="clip0">
<rect width="94" height="94" fill="white"/>
</clipPath>
</defs>
</svg>
