<svg width="90" height="90" viewBox="0 0 90 90" fill="none" xmlns="http://www.w3.org/2000/svg">
<path d="M24.158 40.7368C29.1204 40.7368 33.158 36.6993 33.158 31.7368C33.158 26.7743 29.1204 22.7368 24.158 22.7368C19.1955 22.7368 15.158 26.7743 15.158 31.7368C15.158 36.6993 19.1953 40.7368 24.158 40.7368ZM24.158 25.579C27.5534 25.579 30.3159 28.3416 30.3159 31.737C30.3159 35.1324 27.5534 37.895 24.158 37.895C20.7626 37.895 18 35.1322 18 31.7368C18 28.3414 20.7626 25.579 24.158 25.579Z" fill="#8A4BC3"/>
<path d="M48.7894 25.579H88.5789C89.3638 25.579 89.9999 24.9427 89.9999 24.158C89.9999 23.3731 89.3636 22.737 88.5789 22.737H84.0678C85.6337 21.8167 86.1684 19.7965 85.2589 18.2208L75.7852 1.81178C75.3424 1.04484 74.6273 0.496055 73.7718 0.267012C72.9165 0.037793 72.023 0.155566 71.2558 0.598184L68.874 1.97332C68.3576 0.811934 67.1928 0 65.842 0H62.0525C61.3486 0 60.6951 0.220605 60.1577 0.596074C59.6205 0.220605 58.967 0 58.2632 0H54.4737C52.6454 0 51.1579 1.48764 51.1579 3.31576V22.263C51.1579 22.4239 51.1695 22.5819 51.1917 22.7368H48.7894C48.0046 22.7368 47.3684 23.3731 47.3684 24.1578C47.3684 24.9427 48.0046 25.579 48.7894 25.579ZM69.3949 4.95404L72.6767 3.0593C72.7614 3.01043 72.8439 2.99584 72.9121 2.99584C72.963 2.99584 73.0059 3.00375 73.0362 3.01201C73.107 3.031 73.2383 3.08479 73.3237 3.23279L82.7975 19.6416C82.9281 19.8679 82.8504 20.1582 82.6242 20.2888L79.3423 22.1836C79.1163 22.314 78.8259 22.2363 78.6953 22.0101L69.2215 5.60109C69.0909 5.37504 69.1688 5.08465 69.3949 4.95404ZM69.1579 22.2632V11.1749L75.833 22.7368H69.124C69.1463 22.5821 69.1579 22.4241 69.1579 22.2632ZM53.9999 3.31576C53.9999 3.05473 54.2124 2.84203 54.4737 2.84203H58.2632C58.5242 2.84203 58.7369 3.05455 58.7369 3.31576V7.10525C58.7369 7.89012 59.3732 8.52627 60.1579 8.52627C60.9428 8.52627 61.5789 7.88994 61.5789 7.10525V3.31576C61.5789 3.05473 61.7914 2.84203 62.0526 2.84203H65.8421C66.1032 2.84203 66.3159 3.05455 66.3159 3.31576V22.263C66.3159 22.5241 66.1033 22.7368 65.8421 22.7368H62.0525C61.7914 22.7368 61.5787 22.5243 61.5787 22.263V12.7895C61.5787 12.0046 60.9424 11.3685 60.1577 11.3685C59.3729 11.3685 58.7367 12.0048 58.7367 12.7895V22.2632C58.7367 22.5243 58.5242 22.737 58.263 22.737H54.4735C54.2125 22.737 53.9998 22.5244 53.9998 22.2632V3.31576H53.9999Z" fill="#8A4BC3"/>
<path d="M86.6842 66.3159H63.9472C62.1189 66.3159 60.6315 67.8036 60.6315 69.6317V77.6842H54.4735C53.6886 77.6842 53.0525 78.3205 53.0525 79.1052C53.0525 79.8901 53.6888 80.5262 54.4735 80.5262H60.6315V86.6842C60.6315 88.5125 62.1191 90 63.9472 90H86.684C88.5123 90 89.9998 88.5123 89.9998 86.6842V69.6317C89.9999 67.8036 88.5123 66.3159 86.6842 66.3159ZM87.1579 86.6844C87.1579 86.9454 86.9454 87.1581 86.6842 87.1581H63.9472C63.6862 87.1581 63.4735 86.9456 63.4735 86.6844V84.2822C63.6284 84.3045 63.7864 84.3159 63.9472 84.3159H86.684C86.8448 84.3159 87.0029 84.3043 87.1577 84.2822V86.6844H87.1579ZM87.1579 81.0002C87.1579 81.2612 86.9454 81.4739 86.6842 81.4739H63.9472C63.6862 81.4739 63.4735 81.2614 63.4735 81.0002V79.1054V78.5979C63.6284 78.6203 63.7864 78.6317 63.9472 78.6317H86.684C86.8448 78.6317 87.0029 78.6201 87.1577 78.5979V81.0002H87.1579ZM87.1579 75.3159C87.1579 75.577 86.9454 75.7896 86.6842 75.7896H63.9472C63.6862 75.7896 63.4735 75.5771 63.4735 75.3159V69.6317C63.4735 69.3706 63.686 69.1579 63.9472 69.1579H70.1052V71.5264C70.1052 72.3113 70.7415 72.9474 71.5262 72.9474C72.3111 72.9474 72.9472 72.3111 72.9472 71.5264V69.1579H75.7893V71.5264C75.7893 72.3113 76.4256 72.9474 77.2103 72.9474C77.9951 72.9474 78.6313 72.3111 78.6313 71.5264V69.1579H81.4733V71.5264C81.4733 72.3113 82.1097 72.9474 82.8943 72.9474C83.6792 72.9474 84.3154 72.3111 84.3154 71.5264V69.1579H86.6838C86.9449 69.1579 87.1576 69.3705 87.1576 69.6317V75.3159H87.1579Z" fill="#8A4BC3"/>
<path d="M45 54.9473H42.5531C41.8438 48.5616 36.414 43.5789 29.842 43.5789H18.4736C11.4214 43.5789 5.68406 49.3162 5.68406 56.3684V77.2104C5.68406 77.37 5.69127 77.5282 5.70551 77.6841H1.42102C0.636152 77.6841 0 78.3204 0 79.1051C0 79.89 0.636328 80.5261 1.42102 80.5261H6.87832C7.83475 81.6826 9.2802 82.4209 10.8947 82.4209H22.7368V84.7894C22.7368 87.6625 25.0741 89.9999 27.9473 89.9999H45C47.8731 89.9999 50.2105 87.6625 50.2105 84.7894V60.158C50.2105 57.2847 47.8731 54.9473 45 54.9473ZM24.158 79.579H10.8947C9.58869 79.579 8.52627 78.5166 8.52627 77.2106V56.3685C8.52627 50.8835 12.9885 46.4212 18.4736 46.4212H29.842C34.8446 46.4212 38.9964 50.1332 39.6882 54.9475H27.9473C25.0741 54.9475 22.7368 57.2849 22.7368 60.158V72.0001H16.1053V60.158C16.1053 59.3732 15.4689 58.737 14.6842 58.737C13.8994 58.737 13.2632 59.3733 13.2632 60.158V73.4212C13.2632 74.2061 13.8996 74.8423 14.6842 74.8423H24.1421C24.1515 74.8424 24.1608 74.8424 24.1703 74.8423C25.4707 74.8491 26.5264 75.9087 26.5264 77.2107C26.5263 78.5166 25.4638 79.579 24.158 79.579ZM47.3685 84.7895C47.3685 86.0956 46.3061 87.158 45 87.158H27.9475C26.6414 87.158 25.579 86.0956 25.579 84.7895V82.224C27.7636 81.604 29.3685 79.5912 29.3685 77.2106C29.3685 74.83 27.7636 72.8171 25.579 72.1971V60.158C25.579 58.852 26.6414 57.7895 27.9475 57.7895H45C46.3061 57.7895 47.3685 58.852 47.3685 60.158V84.7895Z" fill="#8A4BC3"/>
<path d="M88.5788 53.0529H86.1766C86.1989 52.898 86.2104 52.74 86.2104 52.5791V33.6317C86.2104 31.8034 84.7227 30.3159 82.8946 30.3159H79.1051C78.4013 30.3159 77.7477 30.5365 77.2104 30.912C76.673 30.5365 76.0194 30.3159 75.3156 30.3159H71.5261C69.6978 30.3159 68.2103 31.8036 68.2103 33.6317V52.5791C68.2103 52.74 68.222 52.898 68.2441 53.0529H58.2631C57.4782 53.0529 56.842 53.6892 56.842 54.4739C56.842 55.2588 57.4784 55.8949 58.2631 55.8949H88.5788C89.3637 55.8949 89.9999 55.2586 89.9999 54.4739C89.9999 53.689 89.3635 53.0529 88.5788 53.0529ZM83.3683 52.5791C83.3683 52.8402 83.1558 53.0529 82.8946 53.0529H79.1051C78.8441 53.0529 78.6314 52.8404 78.6314 52.5791V43.1054C78.6314 42.3206 77.995 41.6844 77.2104 41.6844C76.4255 41.6844 75.7893 42.3207 75.7893 43.1054V52.5791C75.7893 52.8402 75.5768 53.0529 75.3156 53.0529H71.5261C71.2651 53.0529 71.0524 52.8404 71.0524 52.5791V33.6317C71.0524 33.3706 71.2649 33.158 71.5261 33.158H75.3156C75.5766 33.158 75.7893 33.3705 75.7893 33.6317V37.4212C75.7893 38.206 76.4257 38.8422 77.2104 38.8422C77.9952 38.8422 78.6314 38.2059 78.6314 37.4212V33.6317C78.6314 33.3706 78.8439 33.158 79.1051 33.158H82.8946C83.1556 33.158 83.3683 33.3705 83.3683 33.6317V52.5791Z" fill="#8A4BC3"/>
<path d="M43.1054 79.5789H31.7369C30.9521 79.5789 30.3159 80.2152 30.3159 80.9999C30.3159 81.7846 30.9522 82.4209 31.7369 82.4209H43.1054C43.8903 82.4209 44.5264 81.7846 44.5264 80.9999C44.5264 80.2152 43.8903 79.5789 43.1054 79.5789Z" fill="#8A4BC3"/>
<path d="M43.1054 62.5261H31.7369C30.9521 62.5261 30.3159 63.1625 30.3159 63.9471C30.3159 64.732 30.9522 65.3682 31.7369 65.3682H43.1054C43.8903 65.3682 44.5264 64.7318 44.5264 63.9471C44.5264 63.1625 43.8903 62.5261 43.1054 62.5261Z" fill="#8A4BC3"/>
<path d="M43.1052 73.8948H35.5262C34.7414 73.8948 34.1052 74.5311 34.1052 75.3158C34.1052 76.1007 34.7416 76.7368 35.5262 76.7368H43.1052C43.8901 76.7368 44.5262 76.1005 44.5262 75.3158C44.5262 74.5311 43.8901 73.8948 43.1052 73.8948Z" fill="#8A4BC3"/>
<path d="M43.1054 68.2104H31.7369C30.9521 68.2104 30.3159 68.8468 30.3159 69.6315C30.3159 70.4163 30.9522 71.0525 31.7369 71.0525H43.1054C43.8903 71.0525 44.5264 70.4162 44.5264 69.6315C44.5264 68.8468 43.8903 68.2104 43.1054 68.2104Z" fill="#8A4BC3"/>
</svg>
