<svg width="93" height="93" viewBox="0 0 93 93" fill="none" xmlns="http://www.w3.org/2000/svg">
<path d="M77.7422 31.2873C83.0005 31.2873 87.2783 27.0095 87.2783 21.7512C87.2783 16.4929 83.0005 12.2151 77.7422 12.2151C72.4839 12.2151 68.2061 16.4929 68.2061 21.7512C68.2061 27.0095 72.4839 31.2873 77.7422 31.2873ZM81.9241 16.3803C79.4104 18.0913 76.0742 18.0913 73.5605 16.3803C74.7157 15.4788 76.1668 14.9397 77.7424 14.9397C79.3179 14.9397 80.7689 15.4788 81.9241 16.3803ZM71.7807 18.4606C73.5517 19.7452 75.6466 20.3887 77.7422 20.3887C79.8376 20.3887 81.9325 19.7454 83.7036 18.4606C84.2446 19.4368 84.5537 20.5584 84.5537 21.7512C84.5537 25.5072 81.4982 28.5627 77.7422 28.5627C73.9862 28.5627 70.9307 25.5072 70.9307 21.7512C70.9307 20.5584 71.2398 19.4368 71.7807 18.4606Z" fill="#8A4BC3"/>
<path d="M62.3027 64.8909C61.5504 64.8909 60.9404 65.5008 60.9404 66.2532V76.6238L56.4226 78.1297C55.7088 78.3677 55.3232 79.1393 55.5609 79.853C55.7513 80.4239 56.2828 80.7848 56.8531 80.7848C56.9959 80.7848 57.1412 80.7621 57.2842 80.7145L62.7334 78.8981C63.2897 78.7126 63.6648 78.192 63.6648 77.6057V66.2532C63.665 65.5008 63.0551 64.8909 62.3027 64.8909Z" fill="#8A4BC3"/>
<path d="M92.8592 75.6309L90.2754 66.0723V60.804C90.2754 60.0516 89.6654 59.4417 88.9131 59.4417H84.4097C86.1774 57.711 87.2761 55.3001 87.2781 52.6374C87.2783 52.6267 87.2783 39.0071 87.2783 39.0071C87.2783 36.2527 85.0376 34.012 82.2832 34.012H73.2012C70.9396 34.012 69.0253 35.5232 68.4124 37.5886C62.1921 37.0039 57.3076 31.7547 57.3076 25.384C57.3076 24.6317 56.6977 24.0217 55.9453 24.0217C55.193 24.0217 54.583 24.6317 54.583 25.384C54.583 33.1875 60.5795 39.6138 68.2061 40.3047V45.8186H49.2246C48.4723 45.8186 47.8623 46.4286 47.8623 47.1809V79.4221C47.8623 80.1745 48.4723 80.7844 49.2246 80.7844C49.977 80.7844 50.5869 80.1745 50.5869 79.4221V62.1663H68.2061V76.6975C68.2061 78.9511 70.0394 80.7844 72.293 80.7844L88.9131 80.7842C91.1667 80.7842 93 78.9509 93 76.6973C93 76.3364 92.9528 75.978 92.8592 75.6309ZM87.5508 62.1663V64.8909H70.9307V62.1663H87.5508ZM77.7422 59.4417H70.9307V53.9924H84.4166C83.7837 57.0978 81.0317 59.4417 77.7422 59.4417ZM73.2012 36.7366H82.2832C83.5353 36.7366 84.5537 37.755 84.5537 39.0071V51.2678H70.9307V39.0071C70.9307 37.755 71.9491 36.7366 73.2012 36.7366ZM68.2061 48.5432V51.2678H50.5869V48.5432H68.2061ZM50.5869 59.4417V53.9924H68.2061V59.4417H50.5869ZM88.9131 78.0596L72.293 78.0598C71.5417 78.0598 70.9307 77.4488 70.9307 76.6975V67.6155H87.8701L90.2287 76.3411C90.2598 76.4561 90.2754 76.576 90.2754 76.6973C90.2754 77.4486 89.6644 78.0596 88.9131 78.0596Z" fill="#8A4BC3"/>
<path d="M45.2836 21.1738C44.5192 20.6545 43.6206 20.3804 42.7137 20.3889H39.3172C38.654 15.774 34.6756 12.2151 29.8799 12.2151C25.0842 12.2151 21.1059 15.774 20.4426 20.3889H17.055C16.1306 20.3864 15.2406 20.6543 14.4766 21.1736C13.4734 21.8553 12.7955 22.8868 12.5681 24.0784C12.3409 25.2698 12.591 26.4784 13.2727 27.4816C13.9544 28.4848 14.9859 29.1627 16.1775 29.3901C16.4645 29.4448 16.7524 29.4719 17.0381 29.4719C17.939 29.4719 18.8191 29.203 19.5809 28.6855C20.3438 28.1671 20.9237 27.4397 21.2581 26.5816L21.4265 26.1564C23.0204 29.2025 26.2104 31.2872 29.8801 31.2872C33.5498 31.2872 36.7397 29.2025 38.3336 26.1564L38.502 26.5816C38.8364 27.4397 39.4164 28.1671 40.1793 28.6855C40.9409 29.2032 41.8209 29.472 42.7221 29.472C43.0078 29.472 43.2959 29.445 43.5827 29.3903C44.7742 29.1629 45.8058 28.4852 46.4873 27.482C47.169 26.4788 47.4193 25.27 47.1919 24.0786C46.9645 22.8868 46.2866 21.8553 45.2836 21.1738ZM36.5372 20.3126C32.8764 19.9493 29.5295 18.2761 27.0379 15.5635C27.9036 15.1642 28.8658 14.9399 29.8801 14.9399C33.1422 14.9397 35.8749 17.2454 36.5372 20.3126ZM18.7233 25.582C18.5869 25.9333 18.355 26.2243 18.0493 26.4319C17.648 26.7046 17.1643 26.8046 16.6879 26.7136C16.2112 26.6228 15.7987 26.3516 15.5261 25.9502C15.2535 25.549 15.1534 25.0654 15.2444 24.5888C15.3352 24.1122 15.6064 23.6997 16.0078 23.427C16.3101 23.2216 16.6615 23.1133 17.0339 23.1133H19.7011L18.7233 25.582ZM29.8799 28.5627C26.1239 28.5627 23.0684 25.5072 23.0684 21.7512C23.0684 19.996 23.7359 18.394 24.8301 17.1851C27.862 20.6005 32.0187 22.6785 36.5654 23.0518C35.9565 26.1876 33.191 28.5627 29.8799 28.5627ZM44.2335 25.9506C43.9609 26.3518 43.5484 26.623 43.0717 26.7138C42.5955 26.8048 42.1118 26.7047 41.7103 26.4319C41.4046 26.2243 41.1729 25.9333 41.0395 25.5904C41.0363 25.5822 40.0585 23.1135 40.0585 23.1135H42.7224C43.0923 23.107 43.4466 23.2196 43.7522 23.4274C44.1534 23.7 44.4246 24.1126 44.5154 24.5892C44.6064 25.0658 44.5063 25.5491 44.2335 25.9506Z" fill="#8A4BC3"/>
<path d="M14.4404 64.8909C13.6881 64.8909 13.0781 65.5008 13.0781 66.2532V76.6238L8.56034 78.1297C7.84649 78.3677 7.46087 79.1393 7.69863 79.853C7.88899 80.4239 8.42047 80.7848 8.99082 80.7848C9.13359 80.7848 9.27891 80.7621 9.42186 80.7145L14.8711 78.8981C15.4274 78.7126 15.8025 78.192 15.8025 77.6057V66.2532C15.8027 65.5008 15.1928 64.8909 14.4404 64.8909Z" fill="#8A4BC3"/>
<path d="M42.4131 66.0723V60.804C42.4131 60.0516 41.8031 59.4417 41.0508 59.4417H36.5474C38.3167 57.7095 39.416 55.2959 39.416 52.6301V39.0071C39.416 36.2527 37.1753 34.012 34.4209 34.012H25.3389C23.0773 34.012 21.1629 35.5232 20.5501 37.5886C14.3298 37.0039 9.44531 31.7547 9.44531 25.384C9.44531 24.6317 8.83536 24.0217 8.08301 24.0217C7.33065 24.0217 6.7207 24.6317 6.7207 25.384C6.7207 33.1875 12.7172 39.6138 20.3438 40.3047V45.8186H1.3623C0.609949 45.8186 0 46.4286 0 47.1809V79.4221C0 80.1745 0.609949 80.7844 1.3623 80.7844C2.11466 80.7844 2.72461 80.1745 2.72461 79.4221V62.1663H20.3438V76.6975C20.3438 78.9511 22.177 80.7844 24.4307 80.7844L41.0508 80.7842C43.3044 80.7842 45.1377 78.9509 45.1377 76.6973C45.1377 76.3364 45.0905 75.978 44.9969 75.6309L42.4131 66.0723ZM39.6885 62.1663V64.8909H23.0684V62.1663H39.6885ZM25.3389 36.7366H34.4209C35.6729 36.7366 36.6914 37.755 36.6914 39.0071V52.6301C36.6914 56.3861 33.6358 59.4417 29.8799 59.4417H23.0684V39.0071C23.0684 37.755 24.0868 36.7366 25.3389 36.7366ZM2.72461 48.5432H20.3438V51.2678H2.72461V48.5432ZM2.72461 59.4417V53.9924H20.3438V59.4417H2.72461ZM41.0508 78.0596L24.4307 78.0598C23.6794 78.0598 23.0684 77.4488 23.0684 76.6975V67.6155H40.0078L42.3664 76.3411C42.3975 76.4561 42.4131 76.576 42.4131 76.6973C42.4131 77.4486 41.802 78.0596 41.0508 78.0596Z" fill="#8A4BC3"/>
</svg>
