<svg width="95" height="104" viewBox="0 0 95 104" fill="none" xmlns="http://www.w3.org/2000/svg">
<g clip-path="url(#clip0)">
<path d="M23.2801 25.4858L25.3275 23.2445V25.9937H28.4944V23.2445L30.5418 25.4858L32.7809 23.0346L28.4944 18.342V12.9164L34.8283 15.5928V25.9937C34.8283 26.6505 35.1669 27.2515 35.7035 27.5452C35.753 27.5706 36.0082 27.7094 36.4118 27.9125V31.1941C36.3839 35.1622 38.1653 38.8847 41.1621 41.1185V43.7373L31.9049 46.4932C27.095 47.9516 23.7587 52.7373 23.744 58.2018V67.5971C23.744 68.5545 24.453 69.3306 25.3275 69.3306H69.6645C70.539 69.3306 71.248 68.5545 71.248 67.5971V58.2018C71.2325 52.7356 67.8947 47.9491 63.0817 46.4916L53.8299 43.7373V41.1125C56.7958 38.8517 58.5687 35.1503 58.5803 31.1941V27.9125C58.9839 27.7094 59.239 27.5655 59.2877 27.5452C59.8251 27.2515 60.1637 26.6505 60.1637 25.9937V15.5928L68.6493 12.0201C69.2625 11.7636 69.6668 11.1195 69.6668 10.4009C69.6668 9.68225 69.2625 9.03812 68.6493 8.78165L48.0643 0.114267C47.6986 -0.0380891 47.2934 -0.0380891 46.9277 0.114267L26.3427 8.78165C25.7334 9.03812 25.3306 9.67802 25.3275 10.3924V18.342L21.041 23.0346L23.2801 25.4858ZM51.2158 46.3494L47.496 49.7418L43.7763 46.3519C44.1226 46.0294 44.3244 45.5588 44.3291 45.0619V42.8079C46.3927 43.5037 48.5993 43.5037 50.6629 42.8079V45.0619C50.6676 45.5588 50.8694 46.0286 51.2158 46.3494ZM68.081 58.2018V65.8637H63.3306V55.4628H60.1637V65.8637H34.8283V55.4628H31.6614V65.8637H26.911V58.2018C26.9226 54.2981 29.3063 50.8794 32.743 49.8375L40.2119 47.6131L46.4824 53.334C47.07 53.869 47.922 53.869 48.5096 53.334L54.7801 47.6131L62.2443 49.8358C65.6827 50.8769 68.0679 54.2964 68.081 58.2018ZM55.4133 31.1941C55.4095 34.2912 53.8964 37.1513 51.4438 38.696C48.9913 40.2399 45.9721 40.2348 43.525 38.6807C42.9273 38.3092 42.3799 37.8487 41.8967 37.3129C40.4037 35.6979 39.5686 33.4922 39.5787 31.1941V29.3337C42.1062 30.4264 44.7814 31.0553 47.496 31.1941C50.2106 31.0553 52.8858 30.4264 55.4133 29.3337V31.1941ZM56.9968 24.8908C54.0139 26.4618 50.7944 27.4233 47.496 27.7272C44.1976 27.4208 40.9781 26.4592 37.9952 24.8891V16.9149L46.9277 20.6773C47.2934 20.8297 47.6986 20.8297 48.0643 20.6773L56.9968 16.9166V24.8908ZM47.496 3.58122L63.6693 10.3924L47.496 17.2027L31.3227 10.3924L47.496 3.58122Z" fill="#8A4BC3"/>
<path d="M83.0576 89.9394C83.707 89.5737 84.0434 88.7679 83.8709 87.9901C83.6993 87.2131 83.063 86.6654 82.3323 86.6654H76.4639C75.0444 85.4034 74.2789 83.4609 74.415 81.465C74.2372 79.3422 75.1201 77.2803 76.7237 76.0716C77.3732 75.7059 77.7095 74.9001 77.5371 74.1223C77.3654 73.3452 76.7291 72.7976 75.9985 72.7976H18.9937C14.6214 72.7976 11.0764 76.6776 11.0764 81.465C11.0764 86.2515 14.6214 90.1324 18.9937 90.1324H19.0347C17.9871 91.6238 17.4157 93.4512 17.4103 95.3328C17.4157 100.117 20.9568 103.994 25.3276 104H82.3323C83.0552 103.994 83.6831 103.453 83.857 102.684C84.0294 101.911 83.7047 101.107 83.0653 100.727C81.4563 99.5218 80.5703 97.4573 80.7489 95.3328C80.571 93.21 81.454 91.1481 83.0576 89.9394ZM71.3633 79.7315H30.078V83.1985H71.3633C71.5102 84.4122 71.8573 85.5871 72.3877 86.6654H26.9111V76.2646H72.3877C71.8573 77.3421 71.5102 78.5169 71.3633 79.7315ZM23.7441 86.6654H22.1607V76.2646H23.7441V86.6654ZM30.078 90.1324V100.533H28.4945V90.1324H30.078ZM14.2433 81.465C14.2433 78.5931 16.3704 76.2646 18.9937 76.2646V86.6654C16.3704 86.6654 14.2433 84.3369 14.2433 81.465ZM20.5772 95.3328C20.5772 92.4609 22.7042 90.1324 25.3276 90.1324V100.533C22.7042 100.533 20.5772 98.2047 20.5772 95.3328ZM33.2449 100.533V90.1324H78.7216C78.1912 91.2099 77.844 92.3847 77.6971 93.5993H36.4118V97.0663H77.6971C77.844 98.2801 78.1912 99.4549 78.7216 100.533H33.2449Z" fill="#8A4BC3"/>
<path d="M9.49292 50.2625H15.8268V53.7294H9.49292V50.2625Z" fill="#8A4BC3"/>
<path d="M10.377 61.0897L16.4966 59.2944L17.3162 62.6437L11.1965 64.439L10.377 61.0897Z" fill="#8A4BC3"/>
<path d="M77.6763 62.6412L78.4951 59.2927L84.6147 61.0871L83.796 64.4364L77.6763 62.6412Z" fill="#8A4BC3"/>
<path d="M79.1655 50.2625H85.4994V53.7294H79.1655V50.2625Z" fill="#8A4BC3"/>
<path d="M77.6909 41.3293L83.8106 39.5332L84.6309 42.8825L78.5113 44.6786L77.6909 41.3293Z" fill="#8A4BC3"/>
<path d="M74.1296 33.1597L79.6153 29.6919L81.1988 32.695L75.7131 36.162L74.1296 33.1597Z" fill="#8A4BC3"/>
<path d="M68.7722 26.2551L73.2505 21.3518L75.4896 23.8031L71.0113 28.7064L68.7722 26.2551Z" fill="#8A4BC3"/>
<path d="M13.7925 32.6942L15.3759 29.6919L20.8616 33.1588L19.2782 36.162L13.7925 32.6942Z" fill="#8A4BC3"/>
<path d="M10.3845 42.9118L11.2041 39.5625L17.3245 41.3586L16.5042 44.7079L10.3845 42.9118Z" fill="#8A4BC3"/>
</g>
<defs>
<clipPath id="clip0">
<rect width="95" height="104" fill="white"/>
</clipPath>
</defs>
</svg>
