<svg width="1920" height="1370" viewBox="0 0 1920 1370" fill="none" xmlns="http://www.w3.org/2000/svg">
<g filter="url(#filter0_d)">
<path d="M1799.46 610.388C1780.07 532.637 1726.28 456.019 1630.94 404.488C1415.67 288.05 1078.21 333.386 818.727 259.867C715.083 230.474 627.737 183.098 540.497 137.385C453.257 91.6712 362.395 46.2598 255.236 22.1563C148.077 -1.9472 20.4659 -1.56937 -71.5674 40.3662C-137.29 70.2123 -177.341 117.135 -208.232 164.057C-317.522 329.76 -338.719 517.601 -267.67 691.237C-228.471 786.895 -156.89 882.251 -28.7461 940.206C-148.532 1089.65 262.371 1110.58 425.772 1115.19C756.091 1124.41 982.417 1111.42 1308.61 1069.13C1439.27 1052.19 1654.69 975.804 1731.59 916.717C1811.27 855.438 1817.99 684.512 1799.46 610.388Z" fill="#9364A5"/>
</g>
<path d="M-193.082 1375.66C468.209 1198.58 906.737 932.624 904.782 752.485C904.038 686.683 844.117 590.028 726.89 539.019C635.815 499.391 534.743 498.02 414.286 505.897C246.059 516.858 -33.1908 550.575 -398.658 666.148C-330.12 902.693 -261.619 1139.11 -193.082 1375.66Z" fill="#DCC9ED" fill-opacity="0.7"/>
<path d="M2133.62 1199.1C2133.62 1199.1 1652.23 1287.09 1531.13 1278.88C1410.03 1270.67 1264.7 1281.23 1093.65 1086.47C922.589 891.711 945.295 780.253 1022.5 703.993C1099.7 627.732 1148.14 621.866 1432.73 715.725C1717.33 809.584 2133.62 668.795 2133.62 668.795V1199.1Z" fill="#B3EDFA" fill-opacity="0.5"/>
<defs>
<filter id="filter0_d" x="-314.953" y="0" width="2137" height="1132" filterUnits="userSpaceOnUse" color-interpolation-filters="sRGB">
<feFlood flood-opacity="0" result="BackgroundImageFix"/>
<feColorMatrix in="SourceAlpha" type="matrix" values="0 0 0 0 0 0 0 0 0 0 0 0 0 0 0 0 0 0 127 0"/>
<feOffset dx="4" dy="4"/>
<feGaussianBlur stdDeviation="5"/>
<feColorMatrix type="matrix" values="0 0 0 0 0 0 0 0 0 0 0 0 0 0 0 0 0 0 0.1 0"/>
<feBlend mode="normal" in2="BackgroundImageFix" result="effect1_dropShadow"/>
<feBlend mode="normal" in="SourceGraphic" in2="effect1_dropShadow" result="shape"/>
</filter>
</defs>
</svg>
