<svg width="100" height="100" viewBox="0 0 100 100" fill="none" xmlns="http://www.w3.org/2000/svg">
<path d="M49.152 3.0752C31.1836 3.0752 16.5649 17.6939 16.5649 35.6623C16.5649 58.2466 49.184 96.8252 49.184 96.8252C49.184 96.8252 81.739 57.1359 81.739 35.6623C81.739 17.6939 67.1209 3.0752 49.152 3.0752ZM58.9842 45.2038C56.2731 47.9143 52.7128 49.2698 49.152 49.2698C45.5917 49.2698 42.0303 47.9143 39.3204 45.2038C33.8987 39.7827 33.8987 30.9616 39.3204 25.5399C41.9456 22.9135 45.4378 21.467 49.152 21.467C52.8662 21.467 56.3578 22.9141 58.9842 25.5399C64.4058 30.9616 64.4058 39.7827 58.9842 45.2038Z" fill="#03C3ED"/>
<circle cx="50" cy="33" r="17" fill="#03C3ED"/>
</svg>
