<svg width="29" height="29" viewBox="0 0 29 29" fill="none" xmlns="http://www.w3.org/2000/svg">
<path d="M14.254 0.891602C9.04313 0.891602 4.80371 5.13102 4.80371 10.3418C4.80371 16.8913 14.2632 28.0791 14.2632 28.0791C14.2632 28.0791 23.7042 16.5692 23.7042 10.3418C23.7042 5.13102 19.4649 0.891602 14.254 0.891602ZM17.1053 13.1089C16.3191 13.8949 15.2866 14.288 14.254 14.288C13.2215 14.288 12.1887 13.8949 11.4028 13.1089C9.83051 11.5368 9.83051 8.97865 11.4028 7.40638C12.1641 6.64472 13.1768 6.22522 14.254 6.22522C15.3311 6.22522 16.3436 6.64488 17.1053 7.40638C18.6776 8.97865 18.6776 11.5368 17.1053 13.1089Z" fill="#03C3ED"/>
</svg>
