<svg width="28" height="28" viewBox="0 0 28 28" fill="none" xmlns="http://www.w3.org/2000/svg">
<path d="M27.822 13.4554C27.5719 13.1132 21.6119 5.0769 13.9999 5.0769C6.38784 5.0769 0.427548 13.1132 0.17768 13.455C-0.0592267 13.7797 -0.0592267 14.22 0.17768 14.5446C0.427548 14.8868 6.38784 22.9231 13.9999 22.9231C21.6119 22.9231 27.5719 14.8867 27.822 14.5449C28.0593 14.2203 28.0593 13.7797 27.822 13.4554ZM13.9999 21.0769C8.3928 21.0769 3.53648 15.7431 2.09891 13.9994C3.53462 12.2541 8.38077 6.92305 13.9999 6.92305C19.6067 6.92305 24.4626 12.256 25.9008 14.0006C24.4651 15.7458 19.619 21.0769 13.9999 21.0769Z" fill="#C4C4C4"/>
<path d="M14 8.46143C10.9462 8.46143 8.46155 10.946 8.46155 13.9999C8.46155 17.0538 10.9462 19.5384 14 19.5384C17.0539 19.5384 19.5385 17.0538 19.5385 13.9999C19.5385 10.946 17.0539 8.46143 14 8.46143ZM14 17.6922C11.964 17.6922 10.3077 16.0359 10.3077 13.9999C10.3077 11.9639 11.9641 10.3076 14 10.3076C16.036 10.3076 17.6923 11.9639 17.6923 13.9999C17.6923 16.0359 16.036 17.6922 14 17.6922Z" fill="#C4C4C4"/>
</svg>
