<svg width="117" height="117" fill="none" xmlns="http://www.w3.org/2000/svg"><path d="M95.063 3.656H31.078a12.812 12.812 0 0 0-12.797 12.797v76.781a12.785 12.785 0 0 0 12.797 12.797h1.828v5.485a1.826 1.826 0 0 0 1.129 1.689 1.83 1.83 0 0 0 1.992-.397l6.02-6.02 6.02 6.02a1.83 1.83 0 0 0 1.992.397 1.831 1.831 0 0 0 1.129-1.689v-20.11h43.874v3.656H54.844v3.657h40.218v3.656H54.844v3.656h40.218a3.657 3.657 0 0 0 3.657-3.656V7.312a3.661 3.661 0 0 0-3.656-3.656zM21.936 16.453a9.15 9.15 0 0 1 9.141-9.14h63.984v73.124H31.078a12.756 12.756 0 0 0-9.14 3.854V16.453zm.184 74.953h10.785v3.656H22.12a9.182 9.182 0 0 1 0-3.656h.002zm8.957 10.969a9.169 9.169 0 0 1-7.313-3.656h9.141v3.656h-1.828zm16.453 4.727l-4.191-4.192a1.842 1.842 0 0 0-1.293-.535 1.826 1.826 0 0 0-1.293.535l-4.191 4.192V91.406H47.53v15.696zM23.771 87.75a9.131 9.131 0 0 1 7.307-3.656h63.984v3.656h-71.29z" fill="#8A4BC3"/><path d="M29.25 10.969h3.656V76.78H29.25V10.97zm14.625 25.594h40.219a1.828 1.828 0 0 0 1.828-1.829V23.766a1.828 1.828 0 0 0-1.828-1.828H43.875a1.828 1.828 0 0 0-1.828 1.828v10.968a1.828 1.828 0 0 0 1.828 1.828zm1.828-10.97h36.563v7.313H45.703v-7.312z" fill="#8A4BC3"/></svg>