<svg width="116" height="116" fill="none" xmlns="http://www.w3.org/2000/svg"><path d="M58 83.375c-4.67 0-7.915-1.532-8.812-2.9a1.704 1.704 0 0 0-1.45-.725 1.812 1.812 0 0 0-1.548 2.76C48.02 85.187 52.496 87 58 87c5.505 0 9.98-1.813 11.803-4.49a1.812 1.812 0 0 0-1.548-2.76 1.705 1.705 0 0 0-1.45.725c-.89 1.368-4.134 2.9-8.805 2.9zM50.75 65.25a1.813 1.813 0 0 0-3.625 0v3.625a1.813 1.813 0 0 0 3.625 0V65.25zm18.125 0a1.813 1.813 0 0 0-3.625 0v3.625a1.813 1.813 0 0 0 3.625 0V65.25z" fill="#8A4BC3"/><path d="M94.25 48.938a7.25 7.25 0 1 0 9.062-6.997V25.375a1.85 1.85 0 0 0-1.051-1.65l-43.5-19.937a1.858 1.858 0 0 0-1.522 0l-43.5 19.938a1.812 1.812 0 0 0 .127 3.353L29 32.752v18.18a9.063 9.063 0 0 0 1.812 17.943A27.189 27.189 0 0 0 43.5 91.839v4.224H27.187a14.52 14.52 0 0 0-14.5 14.499 1.813 1.813 0 0 0 1.813 1.813h87a1.809 1.809 0 0 0 1.812-1.813 14.517 14.517 0 0 0-14.5-14.5H72.5V91.84a27.189 27.189 0 0 0 12.687-22.964A9.062 9.062 0 0 0 87 50.931v-18.18l12.687-4.766v13.956a7.25 7.25 0 0 0-5.437 6.996zM30.812 65.25a5.437 5.437 0 0 1 0-10.875V65.25zm58 34.438a10.906 10.906 0 0 1 10.73 9.062H16.457a10.903 10.903 0 0 1 10.73-9.063H43.5v3.625a1.814 1.814 0 0 0 1.559 1.795l12.687 1.812c.168.025.34.025.508 0l12.687-1.812a1.81 1.81 0 0 0 1.559-1.795v-3.624h16.312zm-41.687 2.048v-7.957a27.036 27.036 0 0 0 21.75 0v7.957L58 103.294l-10.875-1.558zm34.437-32.861a23.562 23.562 0 0 1-47.125 0v-14.5h47.125v14.5zm1.813-18.125h-50.75V34.111l24.74 9.28c.411.145.859.145 1.27 0l24.74-9.28V50.75zm7.25 9.063a5.454 5.454 0 0 1-5.438 5.437V54.375a5.454 5.454 0 0 1 5.438 5.438zM58 39.748L19.212 25.212 58 7.432l38.787 17.78L58 39.748zm43.5 5.565a3.625 3.625 0 1 1-3.625 3.624 3.636 3.636 0 0 1 3.625-3.624z" fill="#8A4BC3"/></svg>