<svg width="49" height="49" viewBox="0 0 49 49" fill="none" xmlns="http://www.w3.org/2000/svg">
<g clip-path="url(#clip0)">
<path d="M28.9892 24.5402L48.0688 5.45994C49.3105 4.21886 49.3105 2.21219 48.0688 0.971099C46.8277 -0.269989 44.821 -0.269989 43.58 0.971099L24.4997 20.0513L5.4201 0.971099C4.17843 -0.269989 2.17234 -0.269989 0.931253 0.971099C-0.310418 2.21219 -0.310418 4.21886 0.931253 5.45994L20.0109 24.5402L0.931253 43.6204C-0.310418 44.8615 -0.310418 46.8681 0.931253 48.1092C1.54976 48.7283 2.36301 49.0393 3.17568 49.0393C3.98834 49.0393 4.80101 48.7283 5.4201 48.1092L24.4997 29.029L43.58 48.1092C44.1991 48.7283 45.0117 49.0393 45.8244 49.0393C46.6371 49.0393 47.4497 48.7283 48.0688 48.1092C49.3105 46.8681 49.3105 44.8615 48.0688 43.6204L28.9892 24.5402Z" fill="#8A4BC3"/>
</g>
<defs>
<clipPath id="clip0">
<rect width="49" height="49" fill="white"/>
</clipPath>
</defs>
</svg>
