<svg width="1920" height="1309" fill="none" xmlns="http://www.w3.org/2000/svg"><g clip-path="url(#clip0)"><path d="M2199.97 1206.86c-661.06-177.88-1101.8-436.192-1102.72-606.392-.31-62.171 57.79-152.555 173.67-198.89 90.02-35.997 190.6-35.682 310.63-26.319 167.62 13.039 446.12 49.352 811.74 164.392-64.45 222.443-128.87 444.769-193.32 667.209z" fill="#DCC9ED"/></g><g filter="url(#filter0_d)"><path d="M271.03 706.59c18.123-90.127 68.409-178.94 157.53-238.674 201.244-134.971 516.702-82.419 759.27-167.641 96.89-34.071 178.54-88.987 260.09-141.977 81.56-52.99 166.5-105.63 266.67-133.57 100.17-27.94 219.47-27.502 305.5 21.108 61.44 34.597 98.88 88.988 127.76 143.38 102.16 192.077 121.98 409.817 55.56 611.092-36.65 110.884-103.56 221.422-223.35 288.602 111.98 173.23-272.14 197.49-424.89 202.83-308.79 10.69-520.36-4.37-825.285-53.39-122.143-19.63-323.521-108.18-395.415-176.67-74.483-71.035-80.766-269.168-63.44-355.09z" fill="#C79ED6" fill-opacity=".8"/></g><g clip-path="url(#clip1)"><path d="M-239.569 1148.75s481.384 113.59 602.486 102.99c121.103-10.6 266.426 3.03 437.484-248.39 171.058-251.424 148.351-395.309 71.148-493.757-77.203-98.447-125.644-106.02-410.236 15.146-284.591 121.167-700.882-60.583-700.882-60.583v684.594z" fill="#B3EDFA" fill-opacity=".5"/></g><defs><filter id="filter0_d" x="257" y="0" width="1999" height="1309" filterUnits="userSpaceOnUse" color-interpolation-filters="sRGB"><feFlood flood-opacity="0" result="BackgroundImageFix"/><feColorMatrix in="SourceAlpha" values="0 0 0 0 0 0 0 0 0 0 0 0 0 0 0 0 0 0 127 0"/><feOffset dx="4" dy="4"/><feGaussianBlur stdDeviation="5"/><feColorMatrix values="0 0 0 0 0 0 0 0 0 0 0 0 0 0 0 0 0 0 0.1 0"/><feBlend in2="BackgroundImageFix" result="effect1_dropShadow"/><feBlend in="SourceGraphic" in2="effect1_dropShadow" result="shape"/></filter><clipPath id="clip0"><path transform="scale(-1 1) rotate(-16.159 212.676 8769.486)" fill="#fff" d="M0 0h1252.71v847.671H0z"/></clipPath><clipPath id="clip1"><path fill="#fff" d="M-232 396H976v883H-232z"/></clipPath></defs></svg>