<svg width="104" height="104" viewBox="0 0 104 104" fill="none" xmlns="http://www.w3.org/2000/svg">
<g clip-path="url(#clip0)">
<path d="M101.969 73.9245H99.2305C102.162 71.1792 104 67.2793 104 62.9558C104 54.6673 97.2572 47.9245 88.9688 47.9245H66.237C67.5676 46.2876 68.7277 44.3032 69.8068 42.2577L69.9083 42.0649C71.166 39.6845 73.7836 34.7309 74.9047 29.2609C76.3687 22.1245 74.704 16.4251 70.0908 12.7768C67.3447 10.6043 64.3383 9.61803 61.2589 9.82036C61.8349 7.87401 61.7278 5.98003 61.4937 4.62163C61.3065 3.53539 60.7161 0.933644 59.2752 0.226674C57.8335 -0.480296 55.4142 0.645619 54.4415 1.16216C52.9204 1.97069 50.8582 3.44335 49.6672 5.87053C48.6714 7.90178 48.6334 10.0727 48.8508 11.758C43.7211 8.83489 38.4581 9.17846 33.9092 12.7768C29.296 16.4243 27.6313 22.1245 29.0953 29.2609C30.2164 34.7309 32.834 39.6837 34.0917 42.0641L34.1932 42.2569C35.2723 44.3032 36.4324 46.2868 37.763 47.9238H2.03125C0.909302 47.9238 0 48.8338 0 49.955V75.955C0 77.077 0.909302 77.9863 2.03125 77.9863H4.76947C1.83765 80.7316 0 84.6322 0 88.9558C0 97.2442 6.7428 103.987 15.0312 103.987H101.969C103.091 103.987 104 103.077 104 101.956V75.9558C104 74.8338 103.091 73.9245 101.969 73.9245ZM99.9375 62.9558C99.9375 69.0035 95.0173 73.9245 88.9688 73.9245H51.6993C54.6311 71.1792 56.4688 67.2793 56.4688 62.9558C56.4688 58.6322 54.6311 54.7316 51.6993 51.987H88.9688C95.0173 51.987 99.9375 56.9073 99.9375 62.9558ZM53.3148 7.65978C54.1899 5.8745 56.0728 4.80492 57.2606 4.33281C57.6145 5.56109 57.9216 7.70421 57.0464 9.48949C56.2474 11.1177 54.4486 12.1317 53.1664 12.6538C52.8038 11.3446 52.5062 9.30858 53.3148 7.65978ZM33.0745 28.4444C31.9081 22.7537 33.0046 18.6706 36.4292 15.9633C39.9204 13.2021 43.725 13.1616 47.7383 15.8419C50.3306 17.5732 53.6797 17.5732 56.2728 15.8403C60.2797 13.1616 64.0812 13.2029 67.5708 15.9633C70.9954 18.6714 72.0919 22.7537 70.9255 28.4444C69.9202 33.3464 67.4867 37.9532 66.3171 40.1669L66.214 40.3613C64.2407 44.1009 61.8389 47.9238 58.9824 47.9238C57.2836 47.9238 56.468 47.4104 55.5237 46.8161C54.6486 46.2646 53.5599 45.5791 51.9944 45.5791C50.4401 45.5791 49.3514 46.2646 48.4763 46.8161C47.532 47.4104 46.7164 47.9238 45.0184 47.9238C42.1619 47.9238 39.7593 44.1009 37.786 40.3613L37.6837 40.1669C36.5133 37.9532 34.0798 33.3464 33.0745 28.4444ZM15.9112 51.987H24.4067V62.3559L21.6011 59.5273C21.2194 59.1424 20.7005 58.9266 20.1586 58.9266C19.6166 58.9266 19.0977 59.1424 18.7161 59.5273L15.9112 62.3559V51.987ZM4.0625 73.9245V51.987H11.8487V67.2889C11.8487 68.1117 12.3454 68.8536 13.1063 69.167C13.868 69.4804 14.7424 69.3035 15.3224 68.7195L20.1586 63.8421L24.9955 68.7195C25.3851 69.1114 25.9064 69.3201 26.438 69.3201C26.6982 69.3201 26.9609 69.2701 27.2116 69.167C27.9725 68.8536 28.4692 68.1117 28.4692 67.2889V51.987H41.4375C47.486 51.987 52.4062 56.9073 52.4062 62.9558C52.4062 69.0035 47.486 73.9245 41.4375 73.9245H4.0625ZM15.0312 99.9245C8.98273 99.9245 4.0625 95.0035 4.0625 88.9558C4.0625 82.9073 8.98273 77.987 15.0312 77.987H52.3007C49.3689 80.7316 47.5312 84.6322 47.5312 88.9558C47.5312 93.2793 49.3689 97.1792 52.3007 99.9245H15.0312ZM62.5625 99.9245C56.514 99.9245 51.5938 95.0035 51.5938 88.9558C51.5938 82.9073 56.514 77.987 62.5625 77.987H99.9375V91.2576H70.0781C68.9562 91.2576 68.0469 92.1669 68.0469 93.2889C68.0469 94.4108 68.9562 95.3201 70.0781 95.3201H99.9375V99.9245H62.5625Z" fill="#8A4BC3"/>
<path d="M61.9531 91.2568C61.4191 91.2568 60.8947 91.4742 60.517 91.8519C60.1393 92.2296 59.9219 92.7541 59.9219 93.2881C59.9219 93.8245 60.1393 94.3466 60.517 94.7242C60.8947 95.1043 61.4191 95.3193 61.9531 95.3193C62.4871 95.3193 63.0116 95.1043 63.3893 94.7242C63.767 94.3466 63.9844 93.8229 63.9844 93.2881C63.9844 92.7541 63.767 92.232 63.3893 91.8519C63.0116 91.4742 62.4871 91.2568 61.9531 91.2568Z" fill="#8A4BC3"/>
</g>
<defs>
<clipPath id="clip0">
<rect width="104" height="104" fill="white"/>
</clipPath>
</defs>
</svg>
