<svg width="117" height="117" viewBox="0 0 117 117" fill="none" xmlns="http://www.w3.org/2000/svg">
<path d="M95.0625 3.65625H31.0781C27.6854 3.66012 24.4327 5.0096 22.0336 7.40864C19.6346 9.80768 18.2851 13.0604 18.2813 16.4531V93.2344C18.2797 94.9153 18.6097 96.5801 19.2522 98.1333C19.8948 99.6866 20.8374 101.098 22.026 102.287C23.2146 103.475 24.6259 104.418 26.1792 105.06C27.7324 105.703 29.3972 106.033 31.0781 106.031H32.9063V111.516C32.9062 111.877 33.0135 112.231 33.2143 112.531C33.4152 112.832 33.7007 113.066 34.0348 113.205C34.3688 113.343 34.7364 113.379 35.091 113.309C35.4457 113.238 35.7714 113.064 36.0271 112.808L42.0469 106.788L48.0667 112.808C48.3223 113.064 48.6481 113.238 49.0027 113.309C49.3573 113.379 49.7249 113.343 50.059 113.205C50.393 113.066 50.6786 112.832 50.8794 112.531C51.0803 112.231 51.1875 111.877 51.1875 111.516V91.4063H95.0625V95.0625H54.8438V98.7188H95.0625V102.375H54.8438V106.031H95.0625C96.0319 106.03 96.9612 105.645 97.6466 104.959C98.332 104.274 98.7176 103.344 98.7188 102.375V7.3125C98.7176 6.34316 98.332 5.41384 97.6466 4.72841C96.9612 4.04298 96.0319 3.6574 95.0625 3.65625ZM21.9375 16.4531C21.9402 14.0297 22.9041 11.7063 24.6177 9.99273C26.3313 8.27912 28.6547 7.31522 31.0781 7.3125H95.0625V80.4375H31.0781C29.3744 80.4368 27.6878 80.7774 26.1179 81.4392C24.548 82.101 23.1266 83.0706 21.9375 84.2907V16.4531ZM22.1215 91.4063H32.9063V95.0625H22.1203C21.8752 93.8561 21.8752 92.6127 22.1203 91.4063H22.1215ZM31.0781 102.375C29.6594 102.373 28.2604 102.042 26.9914 101.408C25.7225 100.773 24.6182 99.8528 23.7656 98.7188H32.9063V102.375H31.0781ZM47.5313 107.102L43.3396 102.91C43.1698 102.741 42.9683 102.606 42.7465 102.514C42.5247 102.422 42.287 102.375 42.0469 102.375C41.8068 102.375 41.5691 102.422 41.3473 102.514C41.1255 102.606 40.9239 102.741 40.7542 102.91L36.5625 107.102V91.4063H47.5313V107.102ZM23.7707 87.75C24.6211 86.615 25.7242 85.6936 26.9926 85.059C28.261 84.4243 29.6598 84.0939 31.0781 84.0938H95.0625V87.75H23.7707Z" fill="#8A4BC3"/>
<path d="M29.25 10.9688H32.9062V76.7812H29.25V10.9688Z" fill="#8A4BC3"/>
<path d="M43.875 36.5625H84.0938C84.5786 36.5625 85.0436 36.3699 85.3864 36.0271C85.7293 35.6842 85.9219 35.2192 85.9219 34.7344V23.7656C85.9219 23.2808 85.7293 22.8158 85.3864 22.4729C85.0436 22.1301 84.5786 21.9375 84.0938 21.9375H43.875C43.3902 21.9375 42.9252 22.1301 42.5823 22.4729C42.2395 22.8158 42.0469 23.2808 42.0469 23.7656V34.7344C42.0469 35.2192 42.2395 35.6842 42.5823 36.0271C42.9252 36.3699 43.3902 36.5625 43.875 36.5625ZM45.7031 25.5938H82.2656V32.9062H45.7031V25.5938Z" fill="#8A4BC3"/>
</svg>
