<svg width="116" height="116" viewBox="0 0 116 116" fill="none" xmlns="http://www.w3.org/2000/svg">
<path d="M58 83.3749C53.3292 83.3749 50.0848 81.8433 49.1876 80.4749C49.0251 80.2432 48.8074 80.0556 48.5543 79.9291C48.3012 79.8025 48.0205 79.7409 47.7376 79.7499C47.4151 79.7493 47.0983 79.8349 46.8198 79.9977C46.5414 80.1604 46.3114 80.3946 46.1537 80.6759C45.996 80.9572 45.9161 81.2755 45.9225 81.598C45.9288 81.9205 46.0211 82.2354 46.1898 82.5103C48.0204 85.1874 52.4955 86.9999 58 86.9999C63.5046 86.9999 67.9797 85.1874 69.803 82.5103C69.9717 82.2354 70.064 81.9205 70.0703 81.598C70.0767 81.2755 69.9968 80.9572 69.8391 80.6759C69.6814 80.3946 69.4514 80.1604 69.1729 79.9977C68.8945 79.8349 68.5777 79.7493 68.2552 79.7499C67.9723 79.7409 67.6916 79.8025 67.4385 79.9291C67.1854 80.0556 66.9677 80.2432 66.8052 80.4749C65.9152 81.8433 62.6708 83.3749 58 83.3749Z" fill="#8A4BC3"/>
<path d="M50.75 65.25C50.75 64.249 49.9385 63.4375 48.9375 63.4375C47.9365 63.4375 47.125 64.249 47.125 65.25V68.875C47.125 69.876 47.9365 70.6875 48.9375 70.6875C49.9385 70.6875 50.75 69.876 50.75 68.875V65.25Z" fill="#8A4BC3"/>
<path d="M68.875 65.25C68.875 64.249 68.0635 63.4375 67.0625 63.4375C66.0615 63.4375 65.25 64.249 65.25 65.25V68.875C65.25 69.876 66.0615 70.6875 67.0625 70.6875C68.0635 70.6875 68.875 69.876 68.875 68.875V65.25Z" fill="#8A4BC3"/>
<path d="M94.2499 48.9375C94.2455 50.2945 94.622 51.6255 95.3366 52.779C96.0512 53.9326 97.0753 54.8625 98.2922 55.4629C99.5092 56.0632 100.87 56.31 102.22 56.1751C103.571 56.0402 104.856 55.5291 105.93 54.6999C107.004 53.8706 107.824 52.7566 108.297 51.4844C108.769 50.2123 108.875 48.8331 108.602 47.5038C108.329 46.1745 107.689 44.9484 106.754 43.9651C105.819 42.9817 104.626 42.2805 103.312 41.9412V25.375C103.308 25.0294 103.208 24.6919 103.022 24.4004C102.836 24.109 102.573 23.8753 102.261 23.7256L58.7611 3.78812C58.5217 3.6806 58.2623 3.625 57.9999 3.625C57.7374 3.625 57.478 3.6806 57.2386 3.78812L13.7386 23.7256C13.4108 23.8743 13.1347 24.1172 12.9455 24.4234C12.7563 24.7295 12.6625 25.0851 12.6761 25.4448C12.6897 25.8045 12.8101 26.1519 13.0219 26.4429C13.2337 26.7339 13.5274 26.9553 13.8655 27.0787L28.9998 32.7519V50.9313C26.7974 51.3785 24.8397 52.6281 23.5067 54.4376C22.1738 56.247 21.5608 58.4872 21.7866 60.7233C22.0125 62.9593 23.0611 65.0317 24.729 66.538C26.3969 68.0444 28.5649 68.8773 30.8123 68.875C30.818 73.4623 31.9844 77.9736 34.2027 81.9889C36.4211 86.0041 39.6194 89.3928 43.4998 91.8394V96.0625H27.1873C23.3433 96.0678 19.6583 97.5971 16.9401 100.315C14.222 103.033 12.6926 106.718 12.6873 110.562C12.6873 111.043 12.8783 111.504 13.2182 111.844C13.5581 112.184 14.0191 112.375 14.4998 112.375H101.5C101.981 112.375 102.442 112.184 102.781 111.844C103.121 111.504 103.312 111.043 103.312 110.562C103.307 106.718 101.778 103.033 99.0596 100.315C96.3414 97.5971 92.6564 96.0678 88.8124 96.0625H72.4999V91.8394C76.3803 89.3928 79.5786 86.0041 81.797 81.9889C84.0153 77.9736 85.1817 73.4623 85.1874 68.875C87.4348 68.8773 89.6028 68.0444 91.2707 66.538C92.9386 65.0317 93.9872 62.9593 94.2131 60.7233C94.4389 58.4872 93.8259 56.247 92.493 54.4376C91.16 52.6281 89.2023 51.3785 86.9999 50.9313V32.7519L99.6874 27.985V41.9412C98.135 42.3421 96.7593 43.2461 95.7754 44.512C94.7916 45.7779 94.2551 47.3342 94.2499 48.9375ZM30.8123 65.25C29.3702 65.25 27.9872 64.6771 26.9675 63.6574C25.9477 62.6377 25.3748 61.2546 25.3748 59.8125C25.3748 58.3704 25.9477 56.9873 26.9675 55.9676C27.9872 54.9479 29.3702 54.375 30.8123 54.375V65.25ZM88.8124 99.6875C91.3819 99.692 93.8673 100.604 95.8304 102.262C97.7935 103.92 99.108 106.217 99.5424 108.75H16.4573C16.8916 106.217 18.2062 103.92 20.1693 102.262C22.1324 100.604 24.6178 99.692 27.1873 99.6875H43.4998V103.312C43.4999 103.749 43.6576 104.171 43.944 104.501C44.2304 104.831 44.6262 105.046 45.0586 105.107L57.7461 106.919C57.9144 106.944 58.0853 106.944 58.2536 106.919L70.9411 105.107C71.3735 105.046 71.7693 104.831 72.0557 104.501C72.3421 104.171 72.4998 103.749 72.4999 103.312V99.6875H88.8124ZM47.1248 101.736V93.7788C50.5526 95.2848 54.2558 96.0625 57.9999 96.0625C61.7439 96.0625 65.4471 95.2848 68.8749 93.7788V101.736L57.9999 103.294L47.1248 101.736ZM81.5624 68.875C81.5624 75.1242 79.0799 81.1174 74.6611 85.5362C70.2422 89.955 64.249 92.4375 57.9999 92.4375C51.7507 92.4375 45.7575 89.955 41.3386 85.5362C36.9198 81.1174 34.4373 75.1242 34.4373 68.875V54.375H81.5624V68.875ZM83.3749 50.75H32.6248V34.1112L57.3655 43.3913C57.776 43.5362 58.2237 43.5362 58.6342 43.3913L83.3749 34.1112V50.75ZM90.6249 59.8125C90.6206 61.2533 90.0463 62.6338 89.0275 63.6526C88.0087 64.6714 86.6281 65.2457 85.1874 65.25V54.375C86.6281 54.3793 88.0087 54.9536 89.0275 55.9724C90.0463 56.9912 90.6206 58.3717 90.6249 59.8125ZM57.9999 39.7481L19.2123 25.2119L57.9999 7.43125L96.7874 25.2119L57.9999 39.7481ZM101.5 45.3125C102.217 45.3125 102.918 45.5251 103.514 45.9234C104.11 46.3217 104.575 46.8879 104.849 47.5503C105.123 48.2127 105.195 48.9415 105.055 49.6447C104.915 50.3479 104.57 50.9938 104.063 51.5008C103.556 52.0077 102.91 52.353 102.207 52.4928C101.504 52.6327 100.775 52.5609 100.113 52.2866C99.4502 52.0122 98.8841 51.5476 98.4858 50.9514C98.0874 50.3553 97.8749 49.6545 97.8749 48.9375C97.8777 47.977 98.2606 47.0566 98.9398 46.3774C99.619 45.6982 100.539 45.3154 101.5 45.3125Z" fill="#8A4BC3"/>
</svg>
