<svg width="116" height="116" viewBox="0 0 116 116" fill="none" xmlns="http://www.w3.org/2000/svg">
<path d="M51.6563 30.8125C51.1185 30.8125 50.5929 30.972 50.1458 31.2707C49.6987 31.5694 49.3502 31.994 49.1445 32.4908C48.9387 32.9876 48.8848 33.5343 48.9897 34.0617C49.0946 34.589 49.3536 35.0735 49.7338 35.4537C50.114 35.8339 50.5985 36.0929 51.1259 36.1978C51.6532 36.3027 52.1999 36.2488 52.6967 36.043C53.1935 35.8373 53.6181 35.4888 53.9168 35.0417C54.2156 34.5946 54.375 34.069 54.375 33.5313C54.3742 32.8104 54.0875 32.1194 53.5778 31.6097C53.0681 31.1 52.3771 30.8133 51.6563 30.8125Z" fill="#8A4BC3"/>
<path d="M67.9687 30.8125C67.431 30.8125 66.9054 30.972 66.4583 31.2707C66.0112 31.5694 65.6627 31.994 65.457 32.4908C65.2512 32.9876 65.1973 33.5343 65.3022 34.0617C65.4071 34.589 65.6661 35.0735 66.0463 35.4537C66.4265 35.8339 66.911 36.0929 67.4383 36.1978C67.9657 36.3027 68.5124 36.2488 69.0092 36.043C69.5059 35.8373 69.9306 35.4888 70.2293 35.0417C70.528 34.5946 70.6875 34.069 70.6875 33.5313C70.6867 32.8104 70.4 32.1194 69.8903 31.6097C69.3806 31.1 68.6896 30.8133 67.9687 30.8125Z" fill="#8A4BC3"/>
<path d="M59.8125 41.6875C59.332 41.687 58.8713 41.4958 58.5315 41.156C58.1917 40.8162 58.0005 40.3555 58 39.875H54.375C54.375 41.3171 54.9479 42.7002 55.9676 43.7199C56.9873 44.7396 58.3704 45.3125 59.8125 45.3125C61.2546 45.3125 62.6377 44.7396 63.6574 43.7199C64.6771 42.7002 65.25 41.3171 65.25 39.875H61.625C61.6245 40.3555 61.4333 40.8162 61.0935 41.156C60.7537 41.4958 60.293 41.687 59.8125 41.6875Z" fill="#8A4BC3"/>
<path d="M111.734 69.3055C111.533 69.1354 111.297 69.0111 111.044 68.9412C110.79 68.8712 110.524 68.8573 110.264 68.9004L93.8778 71.6316C92.7996 71.8101 91.7676 72.2012 90.8418 72.7821L89.5928 69.6283C89.0999 68.362 88.3967 67.188 87.513 66.1558L87.9858 61.8699C88.107 60.7777 88.1709 59.6798 88.177 58.5809C88.1742 54.5647 87.3536 50.5911 85.7653 46.9023C84.207 43.2499 83.5001 39.2909 83.6979 35.3249L84.0062 29.0512C84.025 28.6559 84.0445 28.2469 84.0445 27.8411C84.0351 21.4187 81.4786 15.2622 76.9358 10.7224C72.3929 6.18255 66.2347 3.63009 59.8123 3.625C56.53 3.62561 53.282 4.29315 50.2655 5.58709C47.2489 6.88104 44.5268 8.7744 42.2642 11.1523C40.0016 13.5302 38.2458 16.343 37.1032 19.4201C35.9607 22.4971 35.4553 25.7743 35.6177 29.0526L35.9249 35.3057C35.943 35.7726 35.9598 36.2135 35.9598 36.6499C35.9661 40.1747 35.2511 43.6634 33.8589 46.9016C31.8332 51.6181 31.068 56.7801 31.6386 61.8815L32.11 66.1082C31.5617 66.7491 31.0806 67.4447 30.6745 68.184L28.2002 61.9988C27.9332 61.3303 27.5336 60.7226 27.0256 60.2125C26.5176 59.7023 25.9117 59.3002 25.2443 59.0302C24.5768 58.7603 23.8617 58.6282 23.1419 58.6418C22.4221 58.6554 21.7125 58.8144 21.0557 59.1094C20.3989 59.4043 19.8086 59.829 19.3203 60.358C18.8319 60.887 18.4556 61.5093 18.2139 62.1874C17.9723 62.8656 17.8703 63.5857 17.9141 64.3043C17.9579 65.0229 18.1467 65.7252 18.4689 66.369L18.8172 67.0625H15.2545C13.8478 67.0608 12.4606 66.7333 11.2017 66.1057L9.39556 65.2026C8.78762 64.8987 8.11207 64.7551 7.43306 64.7857C6.75405 64.8163 6.09411 65.0199 5.51593 65.3772C4.93774 65.7345 4.4605 66.2337 4.12951 66.8274C3.79852 67.4211 3.62478 68.0895 3.62479 68.7692V73.8845C3.62134 74.8951 3.90112 75.8863 4.4324 76.7459C4.96368 77.6055 5.7252 78.2991 6.63059 78.7479L9.58066 80.2231C11.3431 81.1017 13.2851 81.5601 15.2545 81.5625H16.3123V86.93L15.0102 103.856C14.9267 104.943 15.0687 106.036 15.4274 107.065C15.786 108.095 16.3535 109.039 17.0942 109.839C17.835 110.639 18.733 111.277 19.732 111.713C20.731 112.15 21.8094 112.375 22.8996 112.375C23.0337 112.375 23.1671 112.372 23.2997 112.365C23.4152 112.37 23.5306 112.375 23.6454 112.375C25.1413 112.375 26.6011 111.915 27.827 111.058C29.0529 110.201 29.9857 108.988 30.499 107.583L38.7728 92.1992C39.2655 94.4923 40.261 96.6475 41.6873 98.5094V112.375H45.3123V97.875C45.3123 97.451 45.1636 97.0405 44.8922 96.7148C42.8 94.1983 41.7914 90.9547 42.0877 87.6956C42.384 84.4364 43.961 81.4279 46.4727 79.33L44.1518 76.545C43.3258 77.2335 42.5714 78.0037 41.9 78.8438C41.8317 78.9142 41.7691 78.99 41.7127 79.0703L41.7086 79.068L41.6764 79.1245C41.6683 79.1372 41.6617 79.1512 41.6538 79.1641C40.6407 80.4989 39.8455 81.9856 39.2975 83.5692L30.8123 99.3477V77.3274L33.3878 70.9141C33.8191 69.8199 34.468 68.8246 35.2953 67.9887C36.1445 67.1258 37.1562 66.4395 38.2719 65.9695C39.3876 65.4995 40.5854 65.2549 41.796 65.25H47.8613L58.2211 84.243C58.3771 84.5288 58.6071 84.7674 58.8871 84.9336C59.1671 85.0998 59.4867 85.1875 59.8123 85.1875C60.1379 85.1875 60.4575 85.0998 60.7375 84.9336C61.0175 84.7674 61.2475 84.5288 61.4034 84.243L65.2498 77.1914V101.5C65.2498 101.919 65.3949 102.325 65.6606 102.649C65.9262 102.973 66.2959 103.195 66.7068 103.277L74.3123 104.799V112.375H77.9373V105.523L84.8719 106.908C84.9172 106.916 85.1273 106.938 85.1873 106.938H88.6163L88.9643 107.586C89.4855 108.991 90.424 110.203 91.6539 111.059C92.8839 111.915 94.3463 112.374 95.8448 112.375C96.2451 112.377 96.6449 112.344 97.0395 112.276C98.3189 112.059 99.5179 111.506 100.514 110.675C101.511 109.844 102.269 108.763 102.713 107.544L107.533 106.74C108.349 106.606 109.093 106.197 109.643 105.58C110.193 104.963 110.514 104.176 110.554 103.35L110.916 103.277C111.328 103.195 111.698 102.974 111.963 102.65C112.229 102.325 112.375 101.919 112.375 101.5V70.6875C112.375 70.4244 112.317 70.1645 112.207 69.9259C112.096 69.6872 111.935 69.4755 111.734 69.3055ZM51.7854 64.875C52.5552 64.5338 53.2095 63.9767 53.6691 63.2712C54.1287 62.5657 54.3738 61.742 54.3748 60.9V55.3531C57.9144 56.4656 61.7102 56.4656 65.2498 55.3531V60.9C65.2509 61.7418 65.4961 62.5653 65.9556 63.2706C66.4152 63.976 67.0694 64.533 67.839 64.8741L65.6576 68.875H53.967L51.7854 64.875ZM59.8123 52.5625C55.968 52.5582 52.2824 51.0291 49.564 48.3108C46.8457 45.5924 45.3166 41.9068 45.3123 38.0625V29.9479C48.5759 27.5899 51.2587 24.5186 53.1568 20.9677C59.2953 25.8813 66.5697 29.1746 74.3123 30.5452V38.0625C74.308 41.9068 72.7789 45.5924 70.0606 48.3108C67.3422 51.0291 63.6566 52.5582 59.8123 52.5625ZM84.3071 68.0197L84.3406 68.0542C85.162 68.8807 85.8024 69.869 86.2211 70.9564L86.9998 72.9223C86.0205 72.264 84.9112 71.8236 83.747 71.6309L69.5717 69.2683L71.7632 65.25H77.8104C79.0243 65.2486 80.2258 65.4933 81.3425 65.9694C82.4591 66.4454 83.4676 67.1429 84.3071 68.0197ZM85.3667 77.9375L77.1199 76.2884L68.873 74.639V72.8265L83.1491 75.2054C83.9129 75.3303 84.6326 75.6463 85.2415 76.124C85.8504 76.6016 86.3287 77.2255 86.6319 77.9375H85.3667ZM94.4745 75.2065L108.75 72.8269V74.6394L100.225 76.3445L92.2579 77.9375H90.9927C91.2959 77.2259 91.774 76.6024 92.3826 76.125C92.9912 75.6475 93.7105 75.3316 94.4739 75.2065H94.4745ZM11.2017 76.9807L8.25165 75.5058C7.94987 75.3561 7.69606 75.1249 7.51899 74.8384C7.34191 74.5518 7.24866 74.2214 7.24979 73.8845V68.7692C7.24829 68.7071 7.26346 68.6458 7.2937 68.5916C7.32394 68.5373 7.36815 68.4922 7.42175 68.4608C7.47367 68.4268 7.53381 68.4073 7.59584 68.4045C7.65787 68.4018 7.71951 68.4157 7.77428 68.445L9.58066 69.3481C11.3431 70.2267 13.2851 70.6851 15.2545 70.6875H21.7498C22.0587 70.6875 22.3626 70.6085 22.6324 70.458C22.9022 70.3076 23.1291 70.0906 23.2916 69.8278C23.454 69.565 23.5465 69.265 23.5604 68.9564C23.5743 68.6478 23.509 68.3407 23.3708 68.0644L21.7117 64.7457C21.5969 64.5162 21.5352 64.2639 21.531 64.0074C21.5268 63.7509 21.5802 63.4967 21.6874 63.2637C21.7946 63.0306 21.9528 62.8246 22.1503 62.6608C22.3478 62.4971 22.5796 62.3798 22.8285 62.3176C23.2303 62.2185 23.6544 62.2676 24.023 62.456C24.3915 62.6444 24.6797 62.9594 24.8347 63.3433L27.1873 69.2241V77.9375H15.2545C13.8478 77.9358 12.4606 77.6083 11.2017 76.9807ZM27.1873 81.5625V85.1875H19.9373V81.5625H27.1873ZM18.6248 104.134L19.8032 88.8125H27.1873V104.462C27.1856 105.545 26.7747 106.587 26.0371 107.379C25.2995 108.171 24.2896 108.655 23.21 108.734C23.1419 108.734 23.0738 108.737 23.0061 108.745C22.9703 108.745 22.9356 108.75 22.8996 108.75C22.3088 108.75 21.7244 108.628 21.183 108.392C20.6417 108.155 20.155 107.809 19.7536 107.376C19.3522 106.942 19.0447 106.43 18.8505 105.873C18.6563 105.315 18.5794 104.723 18.6248 104.134ZM41.7163 79.0726C41.7524 79.024 41.7909 78.9773 41.8316 78.9326C41.7944 78.9799 41.7584 79.0279 41.7217 79.0755L41.7163 79.0726ZM35.4491 63.3374L35.2414 61.4748C34.7405 56.9982 35.412 52.4683 37.1898 48.3294C38.7765 44.64 39.5915 40.6649 39.5848 36.6488C39.5848 36.1424 39.5658 35.6458 39.5463 35.146L39.2381 28.8738C39.1018 26.1289 39.516 23.3845 40.4563 20.8021C41.3966 18.2197 42.844 15.8515 44.7134 13.8369C46.5828 11.8224 48.8363 10.2022 51.3413 9.07166C53.8463 7.94117 56.5521 7.32326 59.2995 7.25429C62.0469 7.18532 64.7804 7.66669 67.3389 8.67007C69.8975 9.67345 72.2295 11.1786 74.1976 13.0968C76.1657 15.015 77.7301 17.3076 78.7988 19.8396C79.8675 22.3715 80.4189 25.0917 80.4204 27.84C80.4204 28.1595 80.4039 28.5081 80.3864 28.8747L80.0785 35.1419C79.8535 39.6582 80.6586 44.1665 82.433 48.3258C83.8283 51.5645 84.5496 55.0535 84.5529 58.58C84.5468 59.549 84.4899 60.517 84.3825 61.48L84.1766 63.3478C82.2437 62.2219 80.0473 61.6275 77.8104 61.625H69.5998C69.4083 61.6225 69.2253 61.5453 69.0899 61.4099C68.9545 61.2744 68.8773 61.0915 68.8748 60.9V53.749C71.6282 52.1586 73.915 49.8721 75.5057 47.1188C77.0963 44.3655 77.9349 41.2423 77.9373 38.0625V29C77.9373 28.5637 77.7799 28.142 77.494 27.8124C77.2082 27.4827 76.813 27.2673 76.381 27.2056C68.4188 26.0698 60.9297 22.7406 54.752 17.5905L53.7227 16.7325C53.5128 16.5576 53.266 16.4323 53.0007 16.3662C52.7355 16.3001 52.4588 16.2949 52.1913 16.3508C51.9238 16.4068 51.6724 16.5225 51.4559 16.6894C51.2394 16.8562 51.0635 17.0699 50.9412 17.3144L50.2389 18.719C48.4633 22.2663 45.7942 25.2899 42.4945 27.4918C42.2462 27.6573 42.0426 27.8816 41.9018 28.1447C41.761 28.4078 41.6873 28.7016 41.6873 29V38.0625C41.6897 41.2423 42.5283 44.3655 44.1189 47.1188C45.7096 49.8721 47.9963 52.1586 50.7498 53.749V60.9C50.7473 61.0915 50.6701 61.2744 50.5346 61.4099C50.3992 61.5453 50.2163 61.6225 50.0248 61.625H41.796C39.5672 61.6321 37.379 62.2224 35.4491 63.3374ZM59.8123 79.5898L55.9451 72.5H63.6795L59.8123 79.5898ZM68.8748 78.336L83.3748 81.236V102.914L68.8748 100.014V78.336ZM86.9998 81.5625H90.6248V103.312H86.9998V81.5625ZM96.4175 108.705C96.2283 108.737 96.0367 108.752 95.8448 108.75C95.1995 108.749 94.5656 108.581 94.0054 108.26C93.4452 107.94 92.9782 107.479 92.6503 106.924C92.6845 106.92 92.7182 106.914 92.752 106.908C92.7654 106.906 92.7787 106.905 92.7921 106.902H92.795L92.8075 106.9L96.5333 106.155C96.9386 106.88 97.5839 107.442 98.3585 107.744C97.8191 108.247 97.1444 108.581 96.4175 108.705ZM106.937 103.164L99.6873 104.373V97.636C99.687 97.5064 99.7329 97.3811 99.8166 97.2822C99.9003 97.1834 100.016 97.1176 100.144 97.0965L106.301 96.0704C106.331 96.0654 106.362 96.0627 106.394 96.0625C106.538 96.0635 106.676 96.1216 106.778 96.2241C106.88 96.3266 106.937 96.4653 106.937 96.6099L106.939 103.164L106.937 103.164ZM105.704 92.4948L99.5482 93.5207C98.5729 93.6806 97.6865 94.1826 97.0478 94.9367C96.409 95.6908 96.0597 96.6477 96.0623 97.636V102.552L94.2498 102.915V81.236L108.75 78.336V93.1711C107.861 92.5592 106.769 92.3167 105.705 92.4948H105.704Z" fill="#8A4BC3"/>
</svg>
