<svg width="1920" height="1370" fill="none" xmlns="http://www.w3.org/2000/svg"><g filter="url(#filter0_d)"><path d="M1799.46 610.388c-19.39-77.751-73.18-154.369-168.52-205.9-215.27-116.438-552.73-71.102-812.213-144.621-103.644-29.393-190.99-76.769-278.23-122.482-87.24-45.714-178.102-91.125-285.261-115.229C148.077-1.947 20.466-1.569-71.567 40.366c-65.723 29.846-105.774 76.769-136.665 123.691-109.29 165.703-130.487 353.544-59.438 527.18 39.199 95.658 110.78 191.014 238.924 248.969-119.786 149.444 291.117 170.374 454.518 174.984 330.319 9.22 556.645-3.77 882.838-46.06 130.66-16.94 346.08-93.326 422.98-152.413 79.68-61.279 86.4-232.205 67.87-306.329z" fill="#9364A5"/></g><path d="M-193.082 1375.66C468.209 1198.58 906.737 932.624 904.782 752.485c-.744-65.802-60.665-162.457-177.892-213.466-91.075-39.628-192.147-40.999-312.604-33.122-168.227 10.961-447.477 44.678-812.944 160.251 68.538 236.545 137.039 472.962 205.576 709.512z" fill="#DCC9ED" fill-opacity=".7"/><path d="M2133.62 1199.1s-481.39 87.99-602.49 79.78c-121.1-8.21-266.43 2.35-437.48-192.41-171.061-194.759-148.355-306.217-71.15-382.477 77.2-76.261 125.64-82.127 410.23 11.732 284.6 93.859 700.89-46.93 700.89-46.93V1199.1z" fill="#B3EDFA" fill-opacity=".5"/><defs><filter id="filter0_d" x="-314.953" y="0" width="2137" height="1132" filterUnits="userSpaceOnUse" color-interpolation-filters="sRGB"><feFlood flood-opacity="0" result="BackgroundImageFix"/><feColorMatrix in="SourceAlpha" values="0 0 0 0 0 0 0 0 0 0 0 0 0 0 0 0 0 0 127 0"/><feOffset dx="4" dy="4"/><feGaussianBlur stdDeviation="5"/><feColorMatrix values="0 0 0 0 0 0 0 0 0 0 0 0 0 0 0 0 0 0 0.1 0"/><feBlend in2="BackgroundImageFix" result="effect1_dropShadow"/><feBlend in="SourceGraphic" in2="effect1_dropShadow" result="shape"/></filter></defs></svg>