<svg width="100" height="100" fill="none" xmlns="http://www.w3.org/2000/svg"><path d="M49.152 3.075c-17.968 0-32.587 14.619-32.587 32.587 0 22.585 32.619 61.163 32.619 61.163s32.555-39.69 32.555-61.163c0-17.968-14.618-32.587-32.587-32.587zm9.832 42.129a13.863 13.863 0 0 1-9.832 4.066 13.86 13.86 0 0 1-9.832-4.066c-5.421-5.421-5.421-14.242 0-19.664a13.81 13.81 0 0 1 9.832-4.073c3.714 0 7.206 1.447 9.832 4.073 5.422 5.422 5.422 14.243 0 19.664z" fill="#03C3ED"/><circle cx="50" cy="33" r="17" fill="#03C3ED"/></svg>