<svg width="104" height="104" fill="none" xmlns="http://www.w3.org/2000/svg"><g clip-path="url(#clip0)" fill="#8A4BC3"><path d="M101.969 73.924h-2.738C102.162 71.18 104 67.28 104 62.956c0-8.289-6.743-15.032-15.031-15.032H66.237c1.33-1.636 2.49-3.62 3.57-5.666l.101-.193c1.258-2.38 3.876-7.334 4.997-12.804 1.464-7.136-.201-12.836-4.814-16.484-2.746-2.173-5.753-3.159-8.832-2.957.576-1.946.469-3.84.235-5.198-.188-1.087-.778-3.688-2.219-4.395-1.441-.707-3.86.419-4.834.935-1.52.809-3.583 2.281-4.774 4.709-.996 2.03-1.034 4.202-.816 5.887-5.13-2.923-10.393-2.58-14.942 1.019-4.613 3.647-6.278 9.348-4.814 16.484 1.121 5.47 3.739 10.423 4.997 12.803l.101.193c1.08 2.046 2.24 4.03 3.57 5.667H2.031C.91 47.924 0 48.834 0 49.955v26c0 1.122.91 2.031 2.031 2.031H4.77C1.838 80.732 0 84.632 0 88.956c0 8.288 6.743 15.031 15.031 15.031h86.938c1.122 0 2.031-.91 2.031-2.031v-26a2.03 2.03 0 0 0-2.031-2.032zm-2.031-10.968c0 6.047-4.92 10.968-10.97 10.968H51.7c2.932-2.745 4.77-6.645 4.77-10.968 0-4.324-1.838-8.224-4.77-10.969h37.27c6.048 0 10.969 4.92 10.969 10.969zM53.315 7.66c.875-1.785 2.758-2.855 3.946-3.327.353 1.228.66 3.371-.215 5.156-.799 1.629-2.597 2.643-3.88 3.165-.362-1.31-.66-3.345.149-4.994zm-20.24 20.784c-1.167-5.69-.07-9.773 3.354-12.48 3.491-2.762 7.296-2.802 11.31-.122a7.658 7.658 0 0 0 8.534-.002c4.007-2.678 7.808-2.637 11.298.123 3.424 2.708 4.52 6.79 3.355 12.481-1.006 4.902-3.44 9.51-4.609 11.723l-.103.194c-1.973 3.74-4.375 7.563-7.232 7.563-1.698 0-2.514-.514-3.458-1.108-.875-.551-1.964-1.237-3.53-1.237-1.554 0-2.643.686-3.518 1.237-.944.594-1.76 1.108-3.458 1.108-2.856 0-5.259-3.823-7.232-7.563l-.102-.194c-1.17-2.214-3.604-6.82-4.61-11.723zM15.91 51.987h8.496v10.369L21.6 59.527a2.03 2.03 0 0 0-2.885 0l-2.805 2.829V51.987zM4.063 73.924V51.987h7.786v15.302a2.031 2.031 0 0 0 3.473 1.43l4.837-4.877 4.837 4.877a2.033 2.033 0 0 0 3.473-1.43V51.987h12.968c6.049 0 10.97 4.92 10.97 10.969 0 6.047-4.921 10.968-10.97 10.968H4.063zm10.968 26c-6.048 0-10.969-4.92-10.969-10.968 0-6.049 4.92-10.969 10.97-10.969H52.3c-2.932 2.745-4.77 6.645-4.77 10.969 0 4.323 1.838 8.223 4.77 10.968H15.03zm47.532 0c-6.049 0-10.97-4.92-10.97-10.968 0-6.049 4.921-10.969 10.97-10.969h37.374v13.27H70.078a2.031 2.031 0 1 0 0 4.063h29.86v4.605H62.562z"/><path d="M61.953 91.257c-.534 0-1.058.217-1.436.595a2.047 2.047 0 0 0-.595 1.436c0 .537.217 1.059.595 1.436.378.38.902.595 1.436.595.534 0 1.059-.215 1.436-.595.378-.377.595-.901.595-1.436a2.05 2.05 0 0 0-.595-1.436 2.047 2.047 0 0 0-1.436-.595z"/></g><defs><clipPath id="clip0"><path fill="#fff" d="M0 0h104v104H0z"/></clipPath></defs></svg>