<svg width="116" height="116" fill="none" xmlns="http://www.w3.org/2000/svg"><path d="M51.656 30.813a2.719 2.719 0 1 0 0 5.438 2.719 2.719 0 0 0 0-5.438zm16.313 0a2.719 2.719 0 1 0 0 5.437 2.719 2.719 0 0 0 0-5.438zm-8.156 10.875A1.814 1.814 0 0 1 58 39.874h-3.625a5.438 5.438 0 0 0 10.875 0h-3.625a1.814 1.814 0 0 1-1.813 1.813z" fill="#8A4BC3"/><path d="M111.734 69.305a1.819 1.819 0 0 0-1.47-.405l-16.386 2.732a8.246 8.246 0 0 0-3.036 1.15l-1.25-3.154a12.074 12.074 0 0 0-2.079-3.472l.473-4.286c.121-1.092.185-2.19.191-3.29a29.583 29.583 0 0 0-2.412-11.678 26.179 26.179 0 0 1-2.067-11.577l.308-6.274c.019-.395.038-.804.038-1.21A24.252 24.252 0 0 0 59.813 3.625a24.229 24.229 0 0 0-24.194 25.428l.307 6.253c.018.467.035.908.035 1.344a25.838 25.838 0 0 1-2.101 10.252 29.617 29.617 0 0 0-2.22 14.98l.471 4.226a12.31 12.31 0 0 0-1.436 2.076L28.2 61.999a5.337 5.337 0 0 0-8.88-1.641 5.34 5.34 0 0 0-.851 6.011l.348.694h-3.563a9.108 9.108 0 0 1-4.052-.957l-1.806-.903a3.988 3.988 0 0 0-5.771 3.566v5.115a5.407 5.407 0 0 0 3.006 4.864l2.95 1.475a12.752 12.752 0 0 0 5.674 1.34h1.057v5.367l-1.302 16.926a7.91 7.91 0 0 0 4.722 7.857 7.903 7.903 0 0 0 3.568.652 7.299 7.299 0 0 0 7.2-4.782l8.273-15.384a15.853 15.853 0 0 0 2.914 6.31v13.866h3.625v-14.5c0-.424-.148-.835-.42-1.16a12.358 12.358 0 0 1 1.58-17.385l-2.32-2.785a15.982 15.982 0 0 0-2.252 2.299c-.068.07-.13.146-.187.226l-.004-.002-.033.056-.022.04a15.87 15.87 0 0 0-2.357 4.405l-8.485 15.779v-22.02l2.576-6.414a8.688 8.688 0 0 1 1.907-2.925 9.173 9.173 0 0 1 6.501-2.739h6.065l10.36 18.993a1.813 1.813 0 0 0 3.182 0l3.847-7.052V101.5a1.812 1.812 0 0 0 1.457 1.777l7.605 1.522v7.576h3.625v-6.852l6.935 1.385c.045.008.255.03.315.03h3.43l.347.648a7.343 7.343 0 0 0 8.076 4.69 7.341 7.341 0 0 0 5.673-4.732l4.82-.804a3.608 3.608 0 0 0 3.021-3.39l.362-.073a1.816 1.816 0 0 0 1.459-1.777V70.687a1.82 1.82 0 0 0-.641-1.382zm-59.949-4.43a4.354 4.354 0 0 0 2.59-3.975v-5.547a18.135 18.135 0 0 0 10.875 0V60.9a4.353 4.353 0 0 0 2.589 3.974l-2.181 4.001H53.967l-2.182-4zm8.027-12.313a14.517 14.517 0 0 1-14.5-14.5v-8.114a26.478 26.478 0 0 0 7.845-8.98 46.95 46.95 0 0 0 21.155 9.577v7.517a14.517 14.517 0 0 1-14.5 14.5zM84.307 68.02l.034.034a8.398 8.398 0 0 1 1.88 2.902L87 72.922a8.244 8.244 0 0 0-3.253-1.291l-14.175-2.363 2.191-4.018h6.047a8.98 8.98 0 0 1 6.497 2.77zm1.06 9.918l-8.247-1.65-8.247-1.649v-1.813l14.276 2.38a4.59 4.59 0 0 1 3.483 2.731h-1.265zm9.108-2.731l14.275-2.38v1.812l-8.525 1.706-7.967 1.593h-1.265a4.59 4.59 0 0 1 3.48-2.731h.002zM11.202 76.98l-2.95-1.475a1.803 1.803 0 0 1-1.002-1.621v-5.116a.347.347 0 0 1 .172-.308.346.346 0 0 1 .352-.016l1.807.903a12.752 12.752 0 0 0 5.674 1.34h6.495a1.812 1.812 0 0 0 1.62-2.624l-1.658-3.318a1.713 1.713 0 1 1 3.123-1.403l2.352 5.881v8.713H15.254a9.108 9.108 0 0 1-4.052-.956zm15.985 4.582v3.624h-7.25v-3.624h7.25zm-8.562 22.571l1.178-15.322h7.384v15.65a4.29 4.29 0 0 1-3.977 4.272c-.068 0-.136.003-.204.011-.036 0-.07.005-.106.005a4.296 4.296 0 0 1-3.146-1.374 4.299 4.299 0 0 1-1.13-3.242zm23.091-25.061a1.82 1.82 0 0 1 .116-.14c-.038.047-.074.095-.11.142l-.006-.002zM35.45 63.337l-.208-1.862c-.5-4.477.171-9.007 1.949-13.146a29.44 29.44 0 0 0 2.356-13.183l-.308-6.272A20.605 20.605 0 1 1 80.42 27.84c0 .32-.016.668-.034 1.035l-.307 6.267a29.817 29.817 0 0 0 2.354 13.184 25.978 25.978 0 0 1 2.12 10.254 27.74 27.74 0 0 1-.17 2.9l-.206 1.868a12.676 12.676 0 0 0-6.367-1.723H69.6a.735.735 0 0 1-.725-.725v-7.151a18.132 18.132 0 0 0 9.062-15.687V29a1.812 1.812 0 0 0-1.556-1.794 43.335 43.335 0 0 1-21.629-9.616l-1.03-.857a1.812 1.812 0 0 0-2.78.581l-.703 1.405a22.834 22.834 0 0 1-7.744 8.773A1.812 1.812 0 0 0 41.687 29v9.063a18.132 18.132 0 0 0 9.063 15.686V60.9a.735.735 0 0 1-.725.725h-8.229a12.769 12.769 0 0 0-6.347 1.712zM59.812 79.59l-3.867-7.09h7.734l-3.867 7.09zm9.063-1.254l14.5 2.9v21.678l-14.5-2.9V78.336zM87 81.563h3.625v21.749H87v-21.75zm9.418 27.142a3.71 3.71 0 0 1-3.767-1.781c.034-.004.067-.01.101-.016.013-.002.027-.003.04-.006h.003l.013-.002 3.725-.745a3.582 3.582 0 0 0 1.826 1.589 3.777 3.777 0 0 1-1.941.961zm10.519-5.541l-7.25 1.209v-6.737a.546.546 0 0 1 .457-.54l6.157-1.026a.547.547 0 0 1 .636.54l.002 6.554h-.002zm-1.233-10.67l-6.156 1.027a4.158 4.158 0 0 0-3.486 4.115v4.916l-1.812.363V81.236l14.5-2.9v14.835a4.16 4.16 0 0 0-3.045-.676h-.001z" fill="#8A4BC3"/></svg>